<mxfile host="Electron" agent="Mozilla/5.0 (Windows NT 10.0; Win64; x64) AppleWebKit/537.36 (KHTML, like Gecko) draw.io/25.0.2 Chrome/128.0.6613.186 Electron/32.2.5 Safari/537.36" version="25.0.2">
  <diagram name="Page-1" id="yAHSGpx2KsSWFDbJpqfR">
    <mxGraphModel dx="4253" dy="6701" grid="1" gridSize="10" guides="1" tooltips="1" connect="1" arrows="1" fold="1" page="1" pageScale="1" pageWidth="3300" pageHeight="4681" math="0" shadow="0">
      <root>
        <mxCell id="0" />
        <mxCell id="1" parent="0" />
        <mxCell id="KkVMsKjmulq4ZyXbtEUd-2" value="Patient" style="whiteSpace=wrap;html=1;align=center;fontSize=15;" parent="1" vertex="1">
          <mxGeometry x="380" y="440" width="100" height="40" as="geometry" />
        </mxCell>
        <mxCell id="KkVMsKjmulq4ZyXbtEUd-3" value="&lt;u style=&quot;font-size: 15px;&quot;&gt;Id&lt;/u&gt;" style="ellipse;whiteSpace=wrap;html=1;align=center;fontSize=15;" parent="1" vertex="1">
          <mxGeometry x="400" y="320" width="100" height="40" as="geometry" />
        </mxCell>
        <mxCell id="KkVMsKjmulq4ZyXbtEUd-4" value="" style="endArrow=none;html=1;rounded=0;exitX=0.5;exitY=0;exitDx=0;exitDy=0;entryX=0.5;entryY=1;entryDx=0;entryDy=0;fontSize=15;" parent="1" source="KkVMsKjmulq4ZyXbtEUd-2" target="KkVMsKjmulq4ZyXbtEUd-3" edge="1">
          <mxGeometry relative="1" as="geometry">
            <mxPoint x="410" y="470" as="sourcePoint" />
            <mxPoint x="570" y="470" as="targetPoint" />
          </mxGeometry>
        </mxCell>
        <mxCell id="KkVMsKjmulq4ZyXbtEUd-5" value="FName" style="ellipse;whiteSpace=wrap;html=1;align=center;fontSize=15;" parent="1" vertex="1">
          <mxGeometry x="160" y="320" width="100" height="40" as="geometry" />
        </mxCell>
        <mxCell id="KkVMsKjmulq4ZyXbtEUd-6" value="LName" style="ellipse;whiteSpace=wrap;html=1;align=center;fontSize=15;" parent="1" vertex="1">
          <mxGeometry x="271" y="310" width="100" height="40" as="geometry" />
        </mxCell>
        <mxCell id="KkVMsKjmulq4ZyXbtEUd-17" value="DateOfBirth" style="ellipse;whiteSpace=wrap;html=1;align=center;fontSize=15;" parent="1" vertex="1">
          <mxGeometry x="220" y="470" width="100" height="40" as="geometry" />
        </mxCell>
        <mxCell id="KkVMsKjmulq4ZyXbtEUd-18" value="Gender" style="ellipse;whiteSpace=wrap;html=1;align=center;fontSize=15;" parent="1" vertex="1">
          <mxGeometry x="170" y="430" width="100" height="40" as="geometry" />
        </mxCell>
        <mxCell id="KkVMsKjmulq4ZyXbtEUd-19" value="Email" style="ellipse;whiteSpace=wrap;html=1;align=center;fontSize=15;" parent="1" vertex="1">
          <mxGeometry x="661" y="410" width="100" height="40" as="geometry" />
        </mxCell>
        <mxCell id="KkVMsKjmulq4ZyXbtEUd-20" value="Phone" style="ellipse;whiteSpace=wrap;html=1;align=center;fontSize=15;" parent="1" vertex="1">
          <mxGeometry x="640" y="478" width="100" height="40" as="geometry" />
        </mxCell>
        <mxCell id="KkVMsKjmulq4ZyXbtEUd-21" value="Address" style="ellipse;whiteSpace=wrap;html=1;align=center;fontSize=15;" parent="1" vertex="1">
          <mxGeometry x="680" y="620" width="100" height="40" as="geometry" />
        </mxCell>
        <mxCell id="KkVMsKjmulq4ZyXbtEUd-23" value="EmergencyContact" style="ellipse;whiteSpace=wrap;html=1;align=center;fontSize=15;" parent="1" vertex="1">
          <mxGeometry x="320" y="510" width="100" height="40" as="geometry" />
        </mxCell>
        <mxCell id="KkVMsKjmulq4ZyXbtEUd-24" value="" style="endArrow=none;html=1;rounded=0;entryX=0;entryY=0.75;entryDx=0;entryDy=0;fontSize=15;" parent="1" source="KkVMsKjmulq4ZyXbtEUd-18" target="KkVMsKjmulq4ZyXbtEUd-2" edge="1">
          <mxGeometry relative="1" as="geometry">
            <mxPoint x="275" y="441" as="sourcePoint" />
            <mxPoint x="390" y="470" as="targetPoint" />
          </mxGeometry>
        </mxCell>
        <mxCell id="KkVMsKjmulq4ZyXbtEUd-25" value="" style="endArrow=none;html=1;rounded=0;exitX=0.586;exitY=-0.043;exitDx=0;exitDy=0;exitPerimeter=0;entryX=0.25;entryY=1;entryDx=0;entryDy=0;fontSize=15;" parent="1" source="KkVMsKjmulq4ZyXbtEUd-23" target="KkVMsKjmulq4ZyXbtEUd-2" edge="1">
          <mxGeometry relative="1" as="geometry">
            <mxPoint x="285" y="451" as="sourcePoint" />
            <mxPoint x="400" y="480" as="targetPoint" />
          </mxGeometry>
        </mxCell>
        <mxCell id="KkVMsKjmulq4ZyXbtEUd-26" value="" style="endArrow=none;html=1;rounded=0;exitX=0.719;exitY=0.057;exitDx=0;exitDy=0;exitPerimeter=0;entryX=0;entryY=1;entryDx=0;entryDy=0;fontSize=15;" parent="1" source="KkVMsKjmulq4ZyXbtEUd-17" target="KkVMsKjmulq4ZyXbtEUd-2" edge="1">
          <mxGeometry relative="1" as="geometry">
            <mxPoint x="295" y="461" as="sourcePoint" />
            <mxPoint x="410" y="490" as="targetPoint" />
          </mxGeometry>
        </mxCell>
        <mxCell id="KkVMsKjmulq4ZyXbtEUd-27" value="" style="endArrow=none;html=1;rounded=0;exitX=0;exitY=0.5;exitDx=0;exitDy=0;entryX=1;entryY=0;entryDx=0;entryDy=0;fontSize=15;" parent="1" source="KkVMsKjmulq4ZyXbtEUd-19" target="KkVMsKjmulq4ZyXbtEUd-2" edge="1">
          <mxGeometry relative="1" as="geometry">
            <mxPoint x="305" y="471" as="sourcePoint" />
            <mxPoint x="420" y="500" as="targetPoint" />
          </mxGeometry>
        </mxCell>
        <mxCell id="KkVMsKjmulq4ZyXbtEUd-28" value="" style="endArrow=none;html=1;rounded=0;exitX=0;exitY=0.5;exitDx=0;exitDy=0;fontSize=15;" parent="1" source="KkVMsKjmulq4ZyXbtEUd-21" edge="1">
          <mxGeometry relative="1" as="geometry">
            <mxPoint x="315" y="481" as="sourcePoint" />
            <mxPoint x="480" y="480" as="targetPoint" />
          </mxGeometry>
        </mxCell>
        <mxCell id="KkVMsKjmulq4ZyXbtEUd-29" value="" style="endArrow=none;html=1;rounded=0;exitX=1;exitY=0.75;exitDx=0;exitDy=0;entryX=0;entryY=0.5;entryDx=0;entryDy=0;fontSize=15;" parent="1" source="KkVMsKjmulq4ZyXbtEUd-2" target="KkVMsKjmulq4ZyXbtEUd-20" edge="1">
          <mxGeometry relative="1" as="geometry">
            <mxPoint x="325" y="491" as="sourcePoint" />
            <mxPoint x="440" y="520" as="targetPoint" />
          </mxGeometry>
        </mxCell>
        <mxCell id="BxqiN3wB2n1SwKioA44z-1" value="Doctor" style="whiteSpace=wrap;html=1;align=center;fontSize=15;" parent="1" vertex="1">
          <mxGeometry x="360" y="1435" width="100" height="40" as="geometry" />
        </mxCell>
        <mxCell id="BxqiN3wB2n1SwKioA44z-2" value="&lt;u style=&quot;font-size: 15px;&quot;&gt;Id&lt;/u&gt;" style="ellipse;whiteSpace=wrap;html=1;align=center;fontSize=15;" parent="1" vertex="1">
          <mxGeometry x="290" y="1335" width="100" height="40" as="geometry" />
        </mxCell>
        <mxCell id="BxqiN3wB2n1SwKioA44z-3" value="" style="endArrow=none;html=1;rounded=0;exitX=0;exitY=0;exitDx=0;exitDy=0;entryX=0.5;entryY=1;entryDx=0;entryDy=0;fontSize=15;" parent="1" source="BxqiN3wB2n1SwKioA44z-1" target="BxqiN3wB2n1SwKioA44z-2" edge="1">
          <mxGeometry relative="1" as="geometry">
            <mxPoint x="390" y="1465" as="sourcePoint" />
            <mxPoint x="550" y="1465" as="targetPoint" />
          </mxGeometry>
        </mxCell>
        <mxCell id="BxqiN3wB2n1SwKioA44z-8" value="DepartmentId" style="ellipse;whiteSpace=wrap;html=1;align=center;fontSize=15;" parent="1" vertex="1">
          <mxGeometry x="250" y="1495" width="100" height="40" as="geometry" />
        </mxCell>
        <mxCell id="BxqiN3wB2n1SwKioA44z-9" value="Specialization" style="ellipse;whiteSpace=wrap;html=1;align=center;fontSize=15;" parent="1" vertex="1">
          <mxGeometry x="170" y="1440" width="100" height="40" as="geometry" />
        </mxCell>
        <mxCell id="BxqiN3wB2n1SwKioA44z-10" value="Email" style="ellipse;whiteSpace=wrap;html=1;align=center;fontSize=15;" parent="1" vertex="1">
          <mxGeometry x="530" y="1340" width="100" height="40" as="geometry" />
        </mxCell>
        <mxCell id="BxqiN3wB2n1SwKioA44z-11" value="Phone" style="ellipse;whiteSpace=wrap;html=1;align=center;fontSize=15;" parent="1" vertex="1">
          <mxGeometry x="520" y="1450" width="100" height="40" as="geometry" />
        </mxCell>
        <mxCell id="BxqiN3wB2n1SwKioA44z-12" value="workingHours" style="ellipse;whiteSpace=wrap;html=1;align=center;fontSize=15;" parent="1" vertex="1">
          <mxGeometry x="440" y="1505" width="100" height="40" as="geometry" />
        </mxCell>
        <mxCell id="BxqiN3wB2n1SwKioA44z-14" value="" style="endArrow=none;html=1;rounded=0;entryX=0;entryY=0.75;entryDx=0;entryDy=0;fontSize=15;" parent="1" source="BxqiN3wB2n1SwKioA44z-9" target="BxqiN3wB2n1SwKioA44z-1" edge="1">
          <mxGeometry relative="1" as="geometry">
            <mxPoint x="255" y="1436" as="sourcePoint" />
            <mxPoint x="370" y="1465" as="targetPoint" />
          </mxGeometry>
        </mxCell>
        <mxCell id="BxqiN3wB2n1SwKioA44z-16" value="" style="endArrow=none;html=1;rounded=0;exitX=0.719;exitY=0.057;exitDx=0;exitDy=0;exitPerimeter=0;entryX=0;entryY=1;entryDx=0;entryDy=0;fontSize=15;" parent="1" source="BxqiN3wB2n1SwKioA44z-8" target="BxqiN3wB2n1SwKioA44z-1" edge="1">
          <mxGeometry relative="1" as="geometry">
            <mxPoint x="275" y="1456" as="sourcePoint" />
            <mxPoint x="390" y="1485" as="targetPoint" />
          </mxGeometry>
        </mxCell>
        <mxCell id="BxqiN3wB2n1SwKioA44z-17" value="" style="endArrow=none;html=1;rounded=0;exitX=0;exitY=0.5;exitDx=0;exitDy=0;entryX=1;entryY=0;entryDx=0;entryDy=0;fontSize=15;" parent="1" source="BxqiN3wB2n1SwKioA44z-10" target="BxqiN3wB2n1SwKioA44z-1" edge="1">
          <mxGeometry relative="1" as="geometry">
            <mxPoint x="285" y="1466" as="sourcePoint" />
            <mxPoint x="400" y="1495" as="targetPoint" />
          </mxGeometry>
        </mxCell>
        <mxCell id="BxqiN3wB2n1SwKioA44z-18" value="" style="endArrow=none;html=1;rounded=0;exitX=0;exitY=0.5;exitDx=0;exitDy=0;fontSize=15;" parent="1" source="BxqiN3wB2n1SwKioA44z-12" edge="1">
          <mxGeometry relative="1" as="geometry">
            <mxPoint x="295" y="1476" as="sourcePoint" />
            <mxPoint x="460" y="1475" as="targetPoint" />
          </mxGeometry>
        </mxCell>
        <mxCell id="BxqiN3wB2n1SwKioA44z-19" value="" style="endArrow=none;html=1;rounded=0;exitX=1;exitY=0.75;exitDx=0;exitDy=0;entryX=0;entryY=0.5;entryDx=0;entryDy=0;fontSize=15;" parent="1" source="BxqiN3wB2n1SwKioA44z-1" target="BxqiN3wB2n1SwKioA44z-11" edge="1">
          <mxGeometry relative="1" as="geometry">
            <mxPoint x="305" y="1486" as="sourcePoint" />
            <mxPoint x="420" y="1515" as="targetPoint" />
          </mxGeometry>
        </mxCell>
        <mxCell id="BxqiN3wB2n1SwKioA44z-20" value="Appointment" style="whiteSpace=wrap;html=1;align=center;fontSize=15;" parent="1" vertex="1">
          <mxGeometry x="290" y="915" width="100" height="40" as="geometry" />
        </mxCell>
        <mxCell id="BxqiN3wB2n1SwKioA44z-21" value="&lt;u style=&quot;font-size: 15px;&quot;&gt;Id&lt;/u&gt;" style="ellipse;whiteSpace=wrap;html=1;align=center;fontSize=15;" parent="1" vertex="1">
          <mxGeometry x="200" y="835" width="100" height="40" as="geometry" />
        </mxCell>
        <mxCell id="BxqiN3wB2n1SwKioA44z-22" value="" style="endArrow=none;html=1;rounded=0;exitX=0;exitY=0;exitDx=0;exitDy=0;entryX=0.5;entryY=1;entryDx=0;entryDy=0;fontSize=15;" parent="1" source="BxqiN3wB2n1SwKioA44z-20" target="BxqiN3wB2n1SwKioA44z-21" edge="1">
          <mxGeometry relative="1" as="geometry">
            <mxPoint x="320" y="945" as="sourcePoint" />
            <mxPoint x="480" y="945" as="targetPoint" />
          </mxGeometry>
        </mxCell>
        <mxCell id="BxqiN3wB2n1SwKioA44z-23" value="PatientId" style="ellipse;whiteSpace=wrap;html=1;align=center;fontSize=15;" parent="1" vertex="1">
          <mxGeometry x="370" y="820" width="100" height="40" as="geometry" />
        </mxCell>
        <mxCell id="BxqiN3wB2n1SwKioA44z-25" value="" style="endArrow=none;html=1;rounded=0;entryX=0.407;entryY=0.987;entryDx=0;entryDy=0;entryPerimeter=0;exitX=0.5;exitY=0;exitDx=0;exitDy=0;fontSize=15;" parent="1" source="BxqiN3wB2n1SwKioA44z-20" target="BxqiN3wB2n1SwKioA44z-23" edge="1">
          <mxGeometry relative="1" as="geometry">
            <mxPoint x="330" y="935" as="sourcePoint" />
            <mxPoint x="480" y="945" as="targetPoint" />
          </mxGeometry>
        </mxCell>
        <mxCell id="BxqiN3wB2n1SwKioA44z-27" value="Status" style="ellipse;whiteSpace=wrap;html=1;align=center;fontSize=15;" parent="1" vertex="1">
          <mxGeometry x="160" y="945" width="100" height="40" as="geometry" />
        </mxCell>
        <mxCell id="BxqiN3wB2n1SwKioA44z-29" value="DoctorID" style="ellipse;whiteSpace=wrap;html=1;align=center;fontSize=15;" parent="1" vertex="1">
          <mxGeometry x="490" y="840" width="100" height="40" as="geometry" />
        </mxCell>
        <mxCell id="BxqiN3wB2n1SwKioA44z-30" value="AppointmentDate" style="ellipse;whiteSpace=wrap;html=1;align=center;fontSize=15;" parent="1" vertex="1">
          <mxGeometry x="600" y="910" width="100" height="40" as="geometry" />
        </mxCell>
        <mxCell id="BxqiN3wB2n1SwKioA44z-31" value="Reason" style="ellipse;whiteSpace=wrap;html=1;align=center;fontSize=15;" parent="1" vertex="1">
          <mxGeometry x="540" y="1020" width="100" height="40" as="geometry" />
        </mxCell>
        <mxCell id="BxqiN3wB2n1SwKioA44z-33" value="" style="endArrow=none;html=1;rounded=0;exitX=0.719;exitY=0.057;exitDx=0;exitDy=0;exitPerimeter=0;entryX=0;entryY=1;entryDx=0;entryDy=0;fontSize=15;" parent="1" source="BxqiN3wB2n1SwKioA44z-27" target="BxqiN3wB2n1SwKioA44z-20" edge="1">
          <mxGeometry relative="1" as="geometry">
            <mxPoint x="205" y="936" as="sourcePoint" />
            <mxPoint x="320" y="965" as="targetPoint" />
          </mxGeometry>
        </mxCell>
        <mxCell id="BxqiN3wB2n1SwKioA44z-34" value="" style="endArrow=none;html=1;rounded=0;exitX=0;exitY=0.5;exitDx=0;exitDy=0;entryX=1;entryY=0;entryDx=0;entryDy=0;fontSize=15;" parent="1" source="BxqiN3wB2n1SwKioA44z-29" target="BxqiN3wB2n1SwKioA44z-20" edge="1">
          <mxGeometry relative="1" as="geometry">
            <mxPoint x="215" y="946" as="sourcePoint" />
            <mxPoint x="330" y="975" as="targetPoint" />
          </mxGeometry>
        </mxCell>
        <mxCell id="BxqiN3wB2n1SwKioA44z-35" value="" style="endArrow=none;html=1;rounded=0;exitX=0;exitY=0.5;exitDx=0;exitDy=0;fontSize=15;" parent="1" source="BxqiN3wB2n1SwKioA44z-31" edge="1">
          <mxGeometry relative="1" as="geometry">
            <mxPoint x="225" y="956" as="sourcePoint" />
            <mxPoint x="390" y="955" as="targetPoint" />
          </mxGeometry>
        </mxCell>
        <mxCell id="BxqiN3wB2n1SwKioA44z-36" value="" style="endArrow=none;html=1;rounded=0;exitX=1;exitY=0.75;exitDx=0;exitDy=0;entryX=0;entryY=0.5;entryDx=0;entryDy=0;fontSize=15;" parent="1" source="BxqiN3wB2n1SwKioA44z-20" target="BxqiN3wB2n1SwKioA44z-30" edge="1">
          <mxGeometry relative="1" as="geometry">
            <mxPoint x="235" y="966" as="sourcePoint" />
            <mxPoint x="350" y="995" as="targetPoint" />
          </mxGeometry>
        </mxCell>
        <mxCell id="BxqiN3wB2n1SwKioA44z-37" value="Deparment" style="whiteSpace=wrap;html=1;align=center;fontSize=15;" parent="1" vertex="1">
          <mxGeometry x="175" y="1675" width="100" height="40" as="geometry" />
        </mxCell>
        <mxCell id="BxqiN3wB2n1SwKioA44z-38" value="&lt;u style=&quot;font-size: 15px;&quot;&gt;DepartmentID&lt;/u&gt;" style="ellipse;whiteSpace=wrap;html=1;align=center;fontSize=15;" parent="1" vertex="1">
          <mxGeometry x="30" y="1645" width="100" height="40" as="geometry" />
        </mxCell>
        <mxCell id="BxqiN3wB2n1SwKioA44z-39" value="" style="endArrow=none;html=1;rounded=0;exitX=0;exitY=0;exitDx=0;exitDy=0;entryX=0.5;entryY=1;entryDx=0;entryDy=0;fontSize=15;" parent="1" source="BxqiN3wB2n1SwKioA44z-37" target="BxqiN3wB2n1SwKioA44z-38" edge="1">
          <mxGeometry relative="1" as="geometry">
            <mxPoint x="205" y="1705" as="sourcePoint" />
            <mxPoint x="365" y="1705" as="targetPoint" />
          </mxGeometry>
        </mxCell>
        <mxCell id="BxqiN3wB2n1SwKioA44z-40" value="Name" style="ellipse;whiteSpace=wrap;html=1;align=center;fontSize=15;" parent="1" vertex="1">
          <mxGeometry x="140" y="1555" width="100" height="40" as="geometry" />
        </mxCell>
        <mxCell id="BxqiN3wB2n1SwKioA44z-42" value="" style="endArrow=none;html=1;rounded=0;entryX=0.407;entryY=0.987;entryDx=0;entryDy=0;entryPerimeter=0;exitX=0.5;exitY=0;exitDx=0;exitDy=0;fontSize=15;" parent="1" source="BxqiN3wB2n1SwKioA44z-37" target="BxqiN3wB2n1SwKioA44z-40" edge="1">
          <mxGeometry relative="1" as="geometry">
            <mxPoint x="215" y="1695" as="sourcePoint" />
            <mxPoint x="365" y="1705" as="targetPoint" />
          </mxGeometry>
        </mxCell>
        <mxCell id="BxqiN3wB2n1SwKioA44z-46" value="Description" style="ellipse;whiteSpace=wrap;html=1;align=center;fontSize=15;" parent="1" vertex="1">
          <mxGeometry x="315" y="1700" width="100" height="40" as="geometry" />
        </mxCell>
        <mxCell id="BxqiN3wB2n1SwKioA44z-51" value="" style="endArrow=none;html=1;rounded=0;exitX=0;exitY=0.5;exitDx=0;exitDy=0;entryX=1;entryY=0;entryDx=0;entryDy=0;fontSize=15;" parent="1" source="BxqiN3wB2n1SwKioA44z-46" target="BxqiN3wB2n1SwKioA44z-37" edge="1">
          <mxGeometry relative="1" as="geometry">
            <mxPoint x="100" y="1706" as="sourcePoint" />
            <mxPoint x="215" y="1735" as="targetPoint" />
          </mxGeometry>
        </mxCell>
        <mxCell id="BxqiN3wB2n1SwKioA44z-55" value="MedicalRecord" style="whiteSpace=wrap;html=1;align=center;fontSize=15;" parent="1" vertex="1">
          <mxGeometry x="1340" y="490" width="100" height="40" as="geometry" />
        </mxCell>
        <mxCell id="BxqiN3wB2n1SwKioA44z-56" value="&lt;u style=&quot;font-size: 15px;&quot;&gt;RecordID&lt;/u&gt;" style="ellipse;whiteSpace=wrap;html=1;align=center;fontSize=15;" parent="1" vertex="1">
          <mxGeometry x="1250" y="410" width="100" height="40" as="geometry" />
        </mxCell>
        <mxCell id="BxqiN3wB2n1SwKioA44z-57" value="" style="endArrow=none;html=1;rounded=0;exitX=0;exitY=0;exitDx=0;exitDy=0;entryX=0.5;entryY=1;entryDx=0;entryDy=0;fontSize=15;" parent="1" source="BxqiN3wB2n1SwKioA44z-55" target="BxqiN3wB2n1SwKioA44z-56" edge="1">
          <mxGeometry relative="1" as="geometry">
            <mxPoint x="1370" y="520" as="sourcePoint" />
            <mxPoint x="1530" y="520" as="targetPoint" />
          </mxGeometry>
        </mxCell>
        <mxCell id="BxqiN3wB2n1SwKioA44z-58" value="PatientID" style="ellipse;whiteSpace=wrap;html=1;align=center;fontSize=15;" parent="1" vertex="1">
          <mxGeometry x="1360" y="410" width="100" height="40" as="geometry" />
        </mxCell>
        <mxCell id="BxqiN3wB2n1SwKioA44z-59" value="DateOfRecord" style="ellipse;whiteSpace=wrap;html=1;align=center;fontSize=15;" parent="1" vertex="1">
          <mxGeometry x="1160" y="430" width="100" height="40" as="geometry" />
        </mxCell>
        <mxCell id="BxqiN3wB2n1SwKioA44z-60" value="" style="endArrow=none;html=1;rounded=0;entryX=0.407;entryY=0.987;entryDx=0;entryDy=0;entryPerimeter=0;exitX=0.5;exitY=0;exitDx=0;exitDy=0;fontSize=15;" parent="1" source="BxqiN3wB2n1SwKioA44z-55" target="BxqiN3wB2n1SwKioA44z-58" edge="1">
          <mxGeometry relative="1" as="geometry">
            <mxPoint x="1380" y="510" as="sourcePoint" />
            <mxPoint x="1530" y="520" as="targetPoint" />
          </mxGeometry>
        </mxCell>
        <mxCell id="BxqiN3wB2n1SwKioA44z-61" value="" style="endArrow=none;html=1;rounded=0;exitX=0.5;exitY=1;exitDx=0;exitDy=0;entryX=0;entryY=0.5;entryDx=0;entryDy=0;fontSize=15;" parent="1" source="BxqiN3wB2n1SwKioA44z-59" target="BxqiN3wB2n1SwKioA44z-55" edge="1">
          <mxGeometry relative="1" as="geometry">
            <mxPoint x="1220" y="530" as="sourcePoint" />
            <mxPoint x="1380" y="530" as="targetPoint" />
          </mxGeometry>
        </mxCell>
        <mxCell id="BxqiN3wB2n1SwKioA44z-64" value="DoctorID" style="ellipse;whiteSpace=wrap;html=1;align=center;fontSize=15;" parent="1" vertex="1">
          <mxGeometry x="1470" y="425" width="100" height="40" as="geometry" />
        </mxCell>
        <mxCell id="BxqiN3wB2n1SwKioA44z-65" value="Diagnostic" style="ellipse;whiteSpace=wrap;html=1;align=center;fontSize=15;" parent="1" vertex="1">
          <mxGeometry x="1480" y="475" width="100" height="40" as="geometry" />
        </mxCell>
        <mxCell id="BxqiN3wB2n1SwKioA44z-66" value="Prescribtion" style="ellipse;whiteSpace=wrap;html=1;align=center;fontSize=15;" parent="1" vertex="1">
          <mxGeometry x="1460" y="535" width="100" height="40" as="geometry" />
        </mxCell>
        <mxCell id="BxqiN3wB2n1SwKioA44z-69" value="" style="endArrow=none;html=1;rounded=0;exitX=0;exitY=0.5;exitDx=0;exitDy=0;entryX=1;entryY=0;entryDx=0;entryDy=0;fontSize=15;" parent="1" source="BxqiN3wB2n1SwKioA44z-64" target="BxqiN3wB2n1SwKioA44z-55" edge="1">
          <mxGeometry relative="1" as="geometry">
            <mxPoint x="1265" y="521" as="sourcePoint" />
            <mxPoint x="1380" y="550" as="targetPoint" />
          </mxGeometry>
        </mxCell>
        <mxCell id="BxqiN3wB2n1SwKioA44z-70" value="" style="endArrow=none;html=1;rounded=0;exitX=0;exitY=0.5;exitDx=0;exitDy=0;fontSize=15;" parent="1" source="BxqiN3wB2n1SwKioA44z-66" edge="1">
          <mxGeometry relative="1" as="geometry">
            <mxPoint x="1275" y="531" as="sourcePoint" />
            <mxPoint x="1440" y="530" as="targetPoint" />
          </mxGeometry>
        </mxCell>
        <mxCell id="BxqiN3wB2n1SwKioA44z-71" value="" style="endArrow=none;html=1;rounded=0;exitX=1;exitY=0.75;exitDx=0;exitDy=0;entryX=0;entryY=0.5;entryDx=0;entryDy=0;fontSize=15;" parent="1" source="BxqiN3wB2n1SwKioA44z-55" target="BxqiN3wB2n1SwKioA44z-65" edge="1">
          <mxGeometry relative="1" as="geometry">
            <mxPoint x="1285" y="541" as="sourcePoint" />
            <mxPoint x="1400" y="570" as="targetPoint" />
          </mxGeometry>
        </mxCell>
        <mxCell id="BxqiN3wB2n1SwKioA44z-72" value="Staff" style="whiteSpace=wrap;html=1;align=center;fontSize=15;" parent="1" vertex="1">
          <mxGeometry x="670" y="1990" width="100" height="40" as="geometry" />
        </mxCell>
        <mxCell id="BxqiN3wB2n1SwKioA44z-73" value="&lt;u style=&quot;font-size: 15px;&quot;&gt;StaffID&lt;/u&gt;" style="ellipse;whiteSpace=wrap;html=1;align=center;fontSize=15;" parent="1" vertex="1">
          <mxGeometry x="405" y="1920" width="100" height="40" as="geometry" />
        </mxCell>
        <mxCell id="BxqiN3wB2n1SwKioA44z-74" value="" style="endArrow=none;html=1;rounded=0;exitX=0;exitY=0;exitDx=0;exitDy=0;entryX=0.5;entryY=1;entryDx=0;entryDy=0;fontSize=15;" parent="1" source="BxqiN3wB2n1SwKioA44z-72" target="BxqiN3wB2n1SwKioA44z-73" edge="1">
          <mxGeometry relative="1" as="geometry">
            <mxPoint x="700" y="2020" as="sourcePoint" />
            <mxPoint x="860" y="2020" as="targetPoint" />
          </mxGeometry>
        </mxCell>
        <mxCell id="BxqiN3wB2n1SwKioA44z-76" value="Email" style="ellipse;whiteSpace=wrap;html=1;align=center;fontSize=15;" parent="1" vertex="1">
          <mxGeometry x="470" y="2020" width="100" height="40" as="geometry" />
        </mxCell>
        <mxCell id="BxqiN3wB2n1SwKioA44z-78" value="" style="endArrow=none;html=1;rounded=0;exitX=0.5;exitY=1;exitDx=0;exitDy=0;entryX=0;entryY=0.5;entryDx=0;entryDy=0;fontSize=15;" parent="1" source="BxqiN3wB2n1SwKioA44z-76" target="BxqiN3wB2n1SwKioA44z-72" edge="1">
          <mxGeometry relative="1" as="geometry">
            <mxPoint x="550" y="2030" as="sourcePoint" />
            <mxPoint x="710" y="2030" as="targetPoint" />
          </mxGeometry>
        </mxCell>
        <mxCell id="BxqiN3wB2n1SwKioA44z-80" value="Role" style="ellipse;whiteSpace=wrap;html=1;align=center;fontSize=15;" parent="1" vertex="1">
          <mxGeometry x="820" y="2005" width="100" height="40" as="geometry" />
        </mxCell>
        <mxCell id="BxqiN3wB2n1SwKioA44z-81" value="Phone" style="ellipse;whiteSpace=wrap;html=1;align=center;fontSize=15;" parent="1" vertex="1">
          <mxGeometry x="800" y="2065" width="100" height="40" as="geometry" />
        </mxCell>
        <mxCell id="BxqiN3wB2n1SwKioA44z-83" value="" style="endArrow=none;html=1;rounded=0;exitX=0;exitY=0.5;exitDx=0;exitDy=0;fontSize=15;" parent="1" source="BxqiN3wB2n1SwKioA44z-81" edge="1">
          <mxGeometry relative="1" as="geometry">
            <mxPoint x="605" y="2031" as="sourcePoint" />
            <mxPoint x="770" y="2030" as="targetPoint" />
          </mxGeometry>
        </mxCell>
        <mxCell id="BxqiN3wB2n1SwKioA44z-84" value="" style="endArrow=none;html=1;rounded=0;exitX=1;exitY=0.75;exitDx=0;exitDy=0;entryX=0;entryY=0.5;entryDx=0;entryDy=0;fontSize=15;" parent="1" source="BxqiN3wB2n1SwKioA44z-72" target="BxqiN3wB2n1SwKioA44z-80" edge="1">
          <mxGeometry relative="1" as="geometry">
            <mxPoint x="615" y="2041" as="sourcePoint" />
            <mxPoint x="730" y="2070" as="targetPoint" />
          </mxGeometry>
        </mxCell>
        <mxCell id="BxqiN3wB2n1SwKioA44z-85" value="DepartmentID" style="ellipse;whiteSpace=wrap;html=1;align=center;fontSize=15;" parent="1" vertex="1">
          <mxGeometry x="640" y="2045" width="100" height="40" as="geometry" />
        </mxCell>
        <mxCell id="BxqiN3wB2n1SwKioA44z-86" value="" style="endArrow=none;html=1;rounded=0;exitX=0.5;exitY=0;exitDx=0;exitDy=0;entryX=0.5;entryY=1;entryDx=0;entryDy=0;fontSize=15;" parent="1" source="BxqiN3wB2n1SwKioA44z-85" target="BxqiN3wB2n1SwKioA44z-72" edge="1">
          <mxGeometry relative="1" as="geometry">
            <mxPoint x="880" y="2120" as="sourcePoint" />
            <mxPoint x="780" y="2040" as="targetPoint" />
          </mxGeometry>
        </mxCell>
        <mxCell id="BxqiN3wB2n1SwKioA44z-87" value="Bill" style="whiteSpace=wrap;html=1;align=center;fontSize=15;" parent="1" vertex="1">
          <mxGeometry x="710" y="160" width="100" height="40" as="geometry" />
        </mxCell>
        <mxCell id="BxqiN3wB2n1SwKioA44z-90" value="&lt;u style=&quot;font-size: 15px;&quot;&gt;BillID&lt;/u&gt;" style="ellipse;whiteSpace=wrap;html=1;align=center;fontSize=15;" parent="1" vertex="1">
          <mxGeometry x="710" y="80" width="100" height="40" as="geometry" />
        </mxCell>
        <mxCell id="BxqiN3wB2n1SwKioA44z-91" value="Date" style="ellipse;whiteSpace=wrap;html=1;align=center;fontSize=15;" parent="1" vertex="1">
          <mxGeometry x="590" y="120" width="100" height="40" as="geometry" />
        </mxCell>
        <mxCell id="BxqiN3wB2n1SwKioA44z-92" value="" style="endArrow=none;html=1;rounded=0;entryX=0.407;entryY=0.987;entryDx=0;entryDy=0;entryPerimeter=0;exitX=0.5;exitY=0;exitDx=0;exitDy=0;fontSize=15;" parent="1" source="BxqiN3wB2n1SwKioA44z-87" target="BxqiN3wB2n1SwKioA44z-90" edge="1">
          <mxGeometry relative="1" as="geometry">
            <mxPoint x="750" y="180" as="sourcePoint" />
            <mxPoint x="900" y="190" as="targetPoint" />
          </mxGeometry>
        </mxCell>
        <mxCell id="BxqiN3wB2n1SwKioA44z-93" value="" style="endArrow=none;html=1;rounded=0;exitX=0.5;exitY=1;exitDx=0;exitDy=0;entryX=0;entryY=0.5;entryDx=0;entryDy=0;fontSize=15;" parent="1" source="BxqiN3wB2n1SwKioA44z-91" target="BxqiN3wB2n1SwKioA44z-87" edge="1">
          <mxGeometry relative="1" as="geometry">
            <mxPoint x="590" y="200" as="sourcePoint" />
            <mxPoint x="750" y="200" as="targetPoint" />
          </mxGeometry>
        </mxCell>
        <mxCell id="BxqiN3wB2n1SwKioA44z-94" value="PatientID" style="ellipse;whiteSpace=wrap;html=1;align=center;fontSize=15;" parent="1" vertex="1">
          <mxGeometry x="830" y="100" width="100" height="40" as="geometry" />
        </mxCell>
        <mxCell id="BxqiN3wB2n1SwKioA44z-95" value="totalAmount" style="ellipse;whiteSpace=wrap;html=1;align=center;fontSize=15;" parent="1" vertex="1">
          <mxGeometry x="840" y="160" width="100" height="40" as="geometry" />
        </mxCell>
        <mxCell id="BxqiN3wB2n1SwKioA44z-96" value="paidAmount" style="ellipse;whiteSpace=wrap;html=1;align=center;fontSize=15;" parent="1" vertex="1">
          <mxGeometry x="830" y="210" width="100" height="40" as="geometry" />
        </mxCell>
        <mxCell id="BxqiN3wB2n1SwKioA44z-97" value="" style="endArrow=none;html=1;rounded=0;exitX=0;exitY=0.5;exitDx=0;exitDy=0;entryX=1;entryY=0;entryDx=0;entryDy=0;fontSize=15;" parent="1" source="BxqiN3wB2n1SwKioA44z-94" target="BxqiN3wB2n1SwKioA44z-87" edge="1">
          <mxGeometry relative="1" as="geometry">
            <mxPoint x="635" y="191" as="sourcePoint" />
            <mxPoint x="750" y="220" as="targetPoint" />
          </mxGeometry>
        </mxCell>
        <mxCell id="BxqiN3wB2n1SwKioA44z-98" value="" style="endArrow=none;html=1;rounded=0;exitX=0;exitY=0.5;exitDx=0;exitDy=0;fontSize=15;" parent="1" source="BxqiN3wB2n1SwKioA44z-96" edge="1">
          <mxGeometry relative="1" as="geometry">
            <mxPoint x="645" y="201" as="sourcePoint" />
            <mxPoint x="810" y="200" as="targetPoint" />
          </mxGeometry>
        </mxCell>
        <mxCell id="BxqiN3wB2n1SwKioA44z-99" value="" style="endArrow=none;html=1;rounded=0;exitX=1;exitY=0.75;exitDx=0;exitDy=0;entryX=0;entryY=0.5;entryDx=0;entryDy=0;fontSize=15;" parent="1" source="BxqiN3wB2n1SwKioA44z-87" target="BxqiN3wB2n1SwKioA44z-95" edge="1">
          <mxGeometry relative="1" as="geometry">
            <mxPoint x="655" y="211" as="sourcePoint" />
            <mxPoint x="770" y="240" as="targetPoint" />
          </mxGeometry>
        </mxCell>
        <mxCell id="BxqiN3wB2n1SwKioA44z-100" value="outStandingAmount" style="ellipse;whiteSpace=wrap;html=1;align=center;fontSize=15;" parent="1" vertex="1">
          <mxGeometry x="680" y="220" width="100" height="40" as="geometry" />
        </mxCell>
        <mxCell id="BxqiN3wB2n1SwKioA44z-101" value="" style="endArrow=none;html=1;rounded=0;exitX=0.5;exitY=0;exitDx=0;exitDy=0;entryX=0.5;entryY=1;entryDx=0;entryDy=0;fontSize=15;" parent="1" source="BxqiN3wB2n1SwKioA44z-100" target="BxqiN3wB2n1SwKioA44z-87" edge="1">
          <mxGeometry relative="1" as="geometry">
            <mxPoint x="920" y="290" as="sourcePoint" />
            <mxPoint x="820" y="210" as="targetPoint" />
          </mxGeometry>
        </mxCell>
        <mxCell id="BxqiN3wB2n1SwKioA44z-102" value="Room" style="whiteSpace=wrap;html=1;align=center;fontSize=15;" parent="1" vertex="1">
          <mxGeometry x="2070" y="640" width="100" height="40" as="geometry" />
        </mxCell>
        <mxCell id="BxqiN3wB2n1SwKioA44z-103" value="&lt;u style=&quot;font-size: 15px;&quot;&gt;RoomID&lt;/u&gt;" style="ellipse;whiteSpace=wrap;html=1;align=center;fontSize=15;" parent="1" vertex="1">
          <mxGeometry x="2090" y="580" width="100" height="40" as="geometry" />
        </mxCell>
        <mxCell id="BxqiN3wB2n1SwKioA44z-104" value="CostPerDay" style="ellipse;whiteSpace=wrap;html=1;align=center;fontSize=15;" parent="1" vertex="1">
          <mxGeometry x="1960" y="600" width="100" height="40" as="geometry" />
        </mxCell>
        <mxCell id="BxqiN3wB2n1SwKioA44z-105" value="" style="endArrow=none;html=1;rounded=0;entryX=0.407;entryY=0.987;entryDx=0;entryDy=0;entryPerimeter=0;exitX=0.5;exitY=0;exitDx=0;exitDy=0;fontSize=15;" parent="1" source="BxqiN3wB2n1SwKioA44z-102" target="BxqiN3wB2n1SwKioA44z-103" edge="1">
          <mxGeometry relative="1" as="geometry">
            <mxPoint x="2110" y="660" as="sourcePoint" />
            <mxPoint x="2260" y="670" as="targetPoint" />
          </mxGeometry>
        </mxCell>
        <mxCell id="BxqiN3wB2n1SwKioA44z-106" value="" style="endArrow=none;html=1;rounded=0;exitX=0.5;exitY=1;exitDx=0;exitDy=0;entryX=0;entryY=0.5;entryDx=0;entryDy=0;fontSize=15;" parent="1" source="BxqiN3wB2n1SwKioA44z-104" target="BxqiN3wB2n1SwKioA44z-102" edge="1">
          <mxGeometry relative="1" as="geometry">
            <mxPoint x="1950" y="680" as="sourcePoint" />
            <mxPoint x="2110" y="680" as="targetPoint" />
          </mxGeometry>
        </mxCell>
        <mxCell id="BxqiN3wB2n1SwKioA44z-107" value="RoomNumber" style="ellipse;whiteSpace=wrap;html=1;align=center;fontSize=15;" parent="1" vertex="1">
          <mxGeometry x="2210" y="630" width="100" height="40" as="geometry" />
        </mxCell>
        <mxCell id="BxqiN3wB2n1SwKioA44z-108" value="Type" style="ellipse;whiteSpace=wrap;html=1;align=center;fontSize=15;" parent="1" vertex="1">
          <mxGeometry x="2190" y="690" width="100" height="40" as="geometry" />
        </mxCell>
        <mxCell id="BxqiN3wB2n1SwKioA44z-110" value="" style="endArrow=none;html=1;rounded=0;exitX=0;exitY=0.5;exitDx=0;exitDy=0;fontSize=15;" parent="1" source="BxqiN3wB2n1SwKioA44z-108" edge="1">
          <mxGeometry relative="1" as="geometry">
            <mxPoint x="2005" y="681" as="sourcePoint" />
            <mxPoint x="2170" y="680" as="targetPoint" />
          </mxGeometry>
        </mxCell>
        <mxCell id="BxqiN3wB2n1SwKioA44z-111" value="" style="endArrow=none;html=1;rounded=0;exitX=1;exitY=0.75;exitDx=0;exitDy=0;entryX=0;entryY=0.5;entryDx=0;entryDy=0;fontSize=15;" parent="1" source="BxqiN3wB2n1SwKioA44z-102" target="BxqiN3wB2n1SwKioA44z-107" edge="1">
          <mxGeometry relative="1" as="geometry">
            <mxPoint x="2015" y="691" as="sourcePoint" />
            <mxPoint x="2130" y="720" as="targetPoint" />
          </mxGeometry>
        </mxCell>
        <mxCell id="BxqiN3wB2n1SwKioA44z-112" value="Status" style="ellipse;whiteSpace=wrap;html=1;align=center;fontSize=15;" parent="1" vertex="1">
          <mxGeometry x="2040" y="705" width="100" height="40" as="geometry" />
        </mxCell>
        <mxCell id="BxqiN3wB2n1SwKioA44z-113" value="" style="endArrow=none;html=1;rounded=0;exitX=0.5;exitY=0;exitDx=0;exitDy=0;entryX=0.5;entryY=1;entryDx=0;entryDy=0;fontSize=15;" parent="1" source="BxqiN3wB2n1SwKioA44z-112" target="BxqiN3wB2n1SwKioA44z-102" edge="1">
          <mxGeometry relative="1" as="geometry">
            <mxPoint x="2280" y="770" as="sourcePoint" />
            <mxPoint x="2180" y="690" as="targetPoint" />
          </mxGeometry>
        </mxCell>
        <mxCell id="BxqiN3wB2n1SwKioA44z-125" value="Insurance" style="whiteSpace=wrap;html=1;align=center;fontSize=15;" parent="1" vertex="1">
          <mxGeometry x="1445" y="160" width="100" height="40" as="geometry" />
        </mxCell>
        <mxCell id="BxqiN3wB2n1SwKioA44z-126" value="&lt;u style=&quot;font-size: 15px;&quot;&gt;InsuranceID&lt;/u&gt;" style="ellipse;whiteSpace=wrap;html=1;align=center;fontSize=15;" parent="1" vertex="1">
          <mxGeometry x="1445" y="80" width="100" height="40" as="geometry" />
        </mxCell>
        <mxCell id="BxqiN3wB2n1SwKioA44z-127" value="ExpiryDate" style="ellipse;whiteSpace=wrap;html=1;align=center;fontSize=15;" parent="1" vertex="1">
          <mxGeometry x="1325" y="120" width="100" height="40" as="geometry" />
        </mxCell>
        <mxCell id="BxqiN3wB2n1SwKioA44z-128" value="" style="endArrow=none;html=1;rounded=0;entryX=0.407;entryY=0.987;entryDx=0;entryDy=0;entryPerimeter=0;exitX=0.5;exitY=0;exitDx=0;exitDy=0;fontSize=15;" parent="1" source="BxqiN3wB2n1SwKioA44z-125" target="BxqiN3wB2n1SwKioA44z-126" edge="1">
          <mxGeometry relative="1" as="geometry">
            <mxPoint x="1485" y="180" as="sourcePoint" />
            <mxPoint x="1635" y="190" as="targetPoint" />
          </mxGeometry>
        </mxCell>
        <mxCell id="BxqiN3wB2n1SwKioA44z-129" value="" style="endArrow=none;html=1;rounded=0;exitX=0.5;exitY=1;exitDx=0;exitDy=0;entryX=0;entryY=0.5;entryDx=0;entryDy=0;fontSize=15;" parent="1" source="BxqiN3wB2n1SwKioA44z-127" target="BxqiN3wB2n1SwKioA44z-125" edge="1">
          <mxGeometry relative="1" as="geometry">
            <mxPoint x="1325" y="200" as="sourcePoint" />
            <mxPoint x="1485" y="200" as="targetPoint" />
          </mxGeometry>
        </mxCell>
        <mxCell id="BxqiN3wB2n1SwKioA44z-130" value="PatientID" style="ellipse;whiteSpace=wrap;html=1;align=center;fontSize=15;" parent="1" vertex="1">
          <mxGeometry x="1565" y="100" width="100" height="40" as="geometry" />
        </mxCell>
        <mxCell id="BxqiN3wB2n1SwKioA44z-131" value="ProvideName" style="ellipse;whiteSpace=wrap;html=1;align=center;fontSize=15;" parent="1" vertex="1">
          <mxGeometry x="1575" y="160" width="100" height="40" as="geometry" />
        </mxCell>
        <mxCell id="BxqiN3wB2n1SwKioA44z-132" value="PlicyNumber" style="ellipse;whiteSpace=wrap;html=1;align=center;fontSize=15;" parent="1" vertex="1">
          <mxGeometry x="1565" y="210" width="100" height="40" as="geometry" />
        </mxCell>
        <mxCell id="BxqiN3wB2n1SwKioA44z-133" value="" style="endArrow=none;html=1;rounded=0;exitX=0;exitY=0.5;exitDx=0;exitDy=0;entryX=1;entryY=0;entryDx=0;entryDy=0;fontSize=15;" parent="1" source="BxqiN3wB2n1SwKioA44z-130" target="BxqiN3wB2n1SwKioA44z-125" edge="1">
          <mxGeometry relative="1" as="geometry">
            <mxPoint x="1370" y="191" as="sourcePoint" />
            <mxPoint x="1485" y="220" as="targetPoint" />
          </mxGeometry>
        </mxCell>
        <mxCell id="BxqiN3wB2n1SwKioA44z-134" value="" style="endArrow=none;html=1;rounded=0;exitX=0;exitY=0.5;exitDx=0;exitDy=0;fontSize=15;" parent="1" source="BxqiN3wB2n1SwKioA44z-132" edge="1">
          <mxGeometry relative="1" as="geometry">
            <mxPoint x="1380" y="201" as="sourcePoint" />
            <mxPoint x="1545" y="200" as="targetPoint" />
          </mxGeometry>
        </mxCell>
        <mxCell id="BxqiN3wB2n1SwKioA44z-135" value="" style="endArrow=none;html=1;rounded=0;exitX=1;exitY=0.75;exitDx=0;exitDy=0;entryX=0;entryY=0.5;entryDx=0;entryDy=0;fontSize=15;" parent="1" source="BxqiN3wB2n1SwKioA44z-125" target="BxqiN3wB2n1SwKioA44z-131" edge="1">
          <mxGeometry relative="1" as="geometry">
            <mxPoint x="1390" y="211" as="sourcePoint" />
            <mxPoint x="1505" y="240" as="targetPoint" />
          </mxGeometry>
        </mxCell>
        <mxCell id="BxqiN3wB2n1SwKioA44z-136" value="CoverageAmount" style="ellipse;whiteSpace=wrap;html=1;align=center;fontSize=15;" parent="1" vertex="1">
          <mxGeometry x="1415" y="220" width="100" height="40" as="geometry" />
        </mxCell>
        <mxCell id="BxqiN3wB2n1SwKioA44z-137" value="" style="endArrow=none;html=1;rounded=0;exitX=0.5;exitY=0;exitDx=0;exitDy=0;entryX=0.5;entryY=1;entryDx=0;entryDy=0;fontSize=15;" parent="1" source="BxqiN3wB2n1SwKioA44z-136" target="BxqiN3wB2n1SwKioA44z-125" edge="1">
          <mxGeometry relative="1" as="geometry">
            <mxPoint x="1655" y="290" as="sourcePoint" />
            <mxPoint x="1555" y="210" as="targetPoint" />
          </mxGeometry>
        </mxCell>
        <mxCell id="BxqiN3wB2n1SwKioA44z-138" value="Schedule" style="whiteSpace=wrap;html=1;align=center;fontSize=15;" parent="1" vertex="1">
          <mxGeometry x="1355" y="1915" width="100" height="40" as="geometry" />
        </mxCell>
        <mxCell id="BxqiN3wB2n1SwKioA44z-139" value="&lt;u style=&quot;font-size: 15px;&quot;&gt;ScheduleID&lt;/u&gt;" style="ellipse;whiteSpace=wrap;html=1;align=center;fontSize=15;" parent="1" vertex="1">
          <mxGeometry x="1376" y="1855" width="100" height="40" as="geometry" />
        </mxCell>
        <mxCell id="BxqiN3wB2n1SwKioA44z-140" value="EndTime" style="ellipse;whiteSpace=wrap;html=1;align=center;fontSize=15;" parent="1" vertex="1">
          <mxGeometry x="1245" y="1875" width="100" height="40" as="geometry" />
        </mxCell>
        <mxCell id="BxqiN3wB2n1SwKioA44z-141" value="" style="endArrow=none;html=1;rounded=0;entryX=0.407;entryY=0.987;entryDx=0;entryDy=0;entryPerimeter=0;exitX=0.5;exitY=0;exitDx=0;exitDy=0;fontSize=15;" parent="1" source="BxqiN3wB2n1SwKioA44z-138" target="BxqiN3wB2n1SwKioA44z-139" edge="1">
          <mxGeometry relative="1" as="geometry">
            <mxPoint x="1395" y="1935" as="sourcePoint" />
            <mxPoint x="1545" y="1945" as="targetPoint" />
          </mxGeometry>
        </mxCell>
        <mxCell id="BxqiN3wB2n1SwKioA44z-142" value="" style="endArrow=none;html=1;rounded=0;exitX=0.5;exitY=1;exitDx=0;exitDy=0;entryX=0;entryY=0.5;entryDx=0;entryDy=0;fontSize=15;" parent="1" source="BxqiN3wB2n1SwKioA44z-140" target="BxqiN3wB2n1SwKioA44z-138" edge="1">
          <mxGeometry relative="1" as="geometry">
            <mxPoint x="1235" y="1955" as="sourcePoint" />
            <mxPoint x="1395" y="1955" as="targetPoint" />
          </mxGeometry>
        </mxCell>
        <mxCell id="BxqiN3wB2n1SwKioA44z-143" value="StaffID" style="ellipse;whiteSpace=wrap;html=1;align=center;fontSize=15;" parent="1" vertex="1">
          <mxGeometry x="1495" y="1905" width="100" height="40" as="geometry" />
        </mxCell>
        <mxCell id="BxqiN3wB2n1SwKioA44z-144" value="DayOfWeek" style="ellipse;whiteSpace=wrap;html=1;align=center;fontSize=15;" parent="1" vertex="1">
          <mxGeometry x="1475" y="1965" width="100" height="40" as="geometry" />
        </mxCell>
        <mxCell id="BxqiN3wB2n1SwKioA44z-145" value="" style="endArrow=none;html=1;rounded=0;exitX=0;exitY=0.5;exitDx=0;exitDy=0;fontSize=15;" parent="1" source="BxqiN3wB2n1SwKioA44z-144" edge="1">
          <mxGeometry relative="1" as="geometry">
            <mxPoint x="1290" y="1956" as="sourcePoint" />
            <mxPoint x="1455" y="1955" as="targetPoint" />
          </mxGeometry>
        </mxCell>
        <mxCell id="BxqiN3wB2n1SwKioA44z-146" value="" style="endArrow=none;html=1;rounded=0;exitX=1;exitY=0.75;exitDx=0;exitDy=0;entryX=0;entryY=0.5;entryDx=0;entryDy=0;fontSize=15;" parent="1" source="BxqiN3wB2n1SwKioA44z-138" target="BxqiN3wB2n1SwKioA44z-143" edge="1">
          <mxGeometry relative="1" as="geometry">
            <mxPoint x="1300" y="1966" as="sourcePoint" />
            <mxPoint x="1415" y="1995" as="targetPoint" />
          </mxGeometry>
        </mxCell>
        <mxCell id="BxqiN3wB2n1SwKioA44z-147" value="StartTime" style="ellipse;whiteSpace=wrap;html=1;align=center;fontSize=15;" parent="1" vertex="1">
          <mxGeometry x="1325" y="1980" width="100" height="40" as="geometry" />
        </mxCell>
        <mxCell id="BxqiN3wB2n1SwKioA44z-148" value="" style="endArrow=none;html=1;rounded=0;exitX=0.5;exitY=0;exitDx=0;exitDy=0;entryX=0.5;entryY=1;entryDx=0;entryDy=0;fontSize=15;" parent="1" source="BxqiN3wB2n1SwKioA44z-147" target="BxqiN3wB2n1SwKioA44z-138" edge="1">
          <mxGeometry relative="1" as="geometry">
            <mxPoint x="1565" y="2045" as="sourcePoint" />
            <mxPoint x="1465" y="1965" as="targetPoint" />
          </mxGeometry>
        </mxCell>
        <mxCell id="BxqiN3wB2n1SwKioA44z-149" value="EmergencyContact" style="whiteSpace=wrap;html=1;align=center;fontSize=15;" parent="1" vertex="1">
          <mxGeometry x="230" y="-5" width="100" height="40" as="geometry" />
        </mxCell>
        <mxCell id="BxqiN3wB2n1SwKioA44z-150" value="&lt;u style=&quot;font-size: 15px;&quot;&gt;ContactID&lt;/u&gt;" style="ellipse;whiteSpace=wrap;html=1;align=center;fontSize=15;" parent="1" vertex="1">
          <mxGeometry x="251" y="-65" width="100" height="40" as="geometry" />
        </mxCell>
        <mxCell id="BxqiN3wB2n1SwKioA44z-151" value="Relationship" style="ellipse;whiteSpace=wrap;html=1;align=center;fontSize=15;" parent="1" vertex="1">
          <mxGeometry x="120" y="-45" width="100" height="40" as="geometry" />
        </mxCell>
        <mxCell id="BxqiN3wB2n1SwKioA44z-152" value="" style="endArrow=none;html=1;rounded=0;entryX=0.407;entryY=0.987;entryDx=0;entryDy=0;entryPerimeter=0;exitX=0.5;exitY=0;exitDx=0;exitDy=0;fontSize=15;" parent="1" source="BxqiN3wB2n1SwKioA44z-149" target="BxqiN3wB2n1SwKioA44z-150" edge="1">
          <mxGeometry relative="1" as="geometry">
            <mxPoint x="270" y="15" as="sourcePoint" />
            <mxPoint x="420" y="25" as="targetPoint" />
          </mxGeometry>
        </mxCell>
        <mxCell id="BxqiN3wB2n1SwKioA44z-153" value="" style="endArrow=none;html=1;rounded=0;exitX=0.5;exitY=1;exitDx=0;exitDy=0;entryX=0;entryY=0.5;entryDx=0;entryDy=0;fontSize=15;" parent="1" source="BxqiN3wB2n1SwKioA44z-151" target="BxqiN3wB2n1SwKioA44z-149" edge="1">
          <mxGeometry relative="1" as="geometry">
            <mxPoint x="110" y="35" as="sourcePoint" />
            <mxPoint x="270" y="35" as="targetPoint" />
          </mxGeometry>
        </mxCell>
        <mxCell id="BxqiN3wB2n1SwKioA44z-154" value="PatientID" style="ellipse;whiteSpace=wrap;html=1;align=center;fontSize=15;" parent="1" vertex="1">
          <mxGeometry x="370" y="-15" width="100" height="40" as="geometry" />
        </mxCell>
        <mxCell id="BxqiN3wB2n1SwKioA44z-155" value="Name" style="ellipse;whiteSpace=wrap;html=1;align=center;fontSize=15;" parent="1" vertex="1">
          <mxGeometry x="350" y="45" width="100" height="40" as="geometry" />
        </mxCell>
        <mxCell id="BxqiN3wB2n1SwKioA44z-156" value="" style="endArrow=none;html=1;rounded=0;exitX=0;exitY=0.5;exitDx=0;exitDy=0;fontSize=15;" parent="1" source="BxqiN3wB2n1SwKioA44z-155" edge="1">
          <mxGeometry relative="1" as="geometry">
            <mxPoint x="165" y="36" as="sourcePoint" />
            <mxPoint x="330" y="35" as="targetPoint" />
          </mxGeometry>
        </mxCell>
        <mxCell id="BxqiN3wB2n1SwKioA44z-157" value="" style="endArrow=none;html=1;rounded=0;exitX=1;exitY=0.75;exitDx=0;exitDy=0;entryX=0;entryY=0.5;entryDx=0;entryDy=0;fontSize=15;" parent="1" source="BxqiN3wB2n1SwKioA44z-149" target="BxqiN3wB2n1SwKioA44z-154" edge="1">
          <mxGeometry relative="1" as="geometry">
            <mxPoint x="175" y="46" as="sourcePoint" />
            <mxPoint x="290" y="75" as="targetPoint" />
          </mxGeometry>
        </mxCell>
        <mxCell id="BxqiN3wB2n1SwKioA44z-158" value="Phone" style="ellipse;whiteSpace=wrap;html=1;align=center;fontSize=15;" parent="1" vertex="1">
          <mxGeometry x="200" y="60" width="100" height="40" as="geometry" />
        </mxCell>
        <mxCell id="BxqiN3wB2n1SwKioA44z-159" value="" style="endArrow=none;html=1;rounded=0;exitX=0.5;exitY=0;exitDx=0;exitDy=0;entryX=0.5;entryY=1;entryDx=0;entryDy=0;fontSize=15;" parent="1" source="BxqiN3wB2n1SwKioA44z-158" target="BxqiN3wB2n1SwKioA44z-149" edge="1">
          <mxGeometry relative="1" as="geometry">
            <mxPoint x="440" y="125" as="sourcePoint" />
            <mxPoint x="340" y="45" as="targetPoint" />
          </mxGeometry>
        </mxCell>
        <mxCell id="BxqiN3wB2n1SwKioA44z-160" value="Visit" style="whiteSpace=wrap;html=1;align=center;fontSize=15;" parent="1" vertex="1">
          <mxGeometry x="1085" y="1055" width="100" height="40" as="geometry" />
        </mxCell>
        <mxCell id="BxqiN3wB2n1SwKioA44z-161" value="Notes" style="ellipse;whiteSpace=wrap;html=1;align=center;fontSize=15;" parent="1" vertex="1">
          <mxGeometry x="995" y="975" width="100" height="40" as="geometry" />
        </mxCell>
        <mxCell id="BxqiN3wB2n1SwKioA44z-162" value="" style="endArrow=none;html=1;rounded=0;exitX=0;exitY=0;exitDx=0;exitDy=0;entryX=0.5;entryY=1;entryDx=0;entryDy=0;fontSize=15;" parent="1" source="BxqiN3wB2n1SwKioA44z-160" target="BxqiN3wB2n1SwKioA44z-161" edge="1">
          <mxGeometry relative="1" as="geometry">
            <mxPoint x="1115" y="1085" as="sourcePoint" />
            <mxPoint x="1275" y="1085" as="targetPoint" />
          </mxGeometry>
        </mxCell>
        <mxCell id="BxqiN3wB2n1SwKioA44z-163" value="&lt;u style=&quot;font-size: 15px;&quot;&gt;VisitID&lt;/u&gt;" style="ellipse;whiteSpace=wrap;html=1;align=center;fontSize=15;" parent="1" vertex="1">
          <mxGeometry x="1105" y="965" width="100" height="40" as="geometry" />
        </mxCell>
        <mxCell id="BxqiN3wB2n1SwKioA44z-164" value="" style="endArrow=none;html=1;rounded=0;entryX=0.407;entryY=0.987;entryDx=0;entryDy=0;entryPerimeter=0;exitX=0.5;exitY=0;exitDx=0;exitDy=0;fontSize=15;" parent="1" source="BxqiN3wB2n1SwKioA44z-160" target="BxqiN3wB2n1SwKioA44z-163" edge="1">
          <mxGeometry relative="1" as="geometry">
            <mxPoint x="1125" y="1075" as="sourcePoint" />
            <mxPoint x="1275" y="1085" as="targetPoint" />
          </mxGeometry>
        </mxCell>
        <mxCell id="BxqiN3wB2n1SwKioA44z-165" value="Reason" style="ellipse;whiteSpace=wrap;html=1;align=center;fontSize=15;" parent="1" vertex="1">
          <mxGeometry x="955" y="1085" width="100" height="40" as="geometry" />
        </mxCell>
        <mxCell id="BxqiN3wB2n1SwKioA44z-167" value="PatientID" style="ellipse;whiteSpace=wrap;html=1;align=center;fontSize=15;" parent="1" vertex="1">
          <mxGeometry x="1225" y="1055" width="100" height="40" as="geometry" />
        </mxCell>
        <mxCell id="BxqiN3wB2n1SwKioA44z-168" value="VisitDate" style="ellipse;whiteSpace=wrap;html=1;align=center;fontSize=15;" parent="1" vertex="1">
          <mxGeometry x="1175" y="1125" width="100" height="40" as="geometry" />
        </mxCell>
        <mxCell id="BxqiN3wB2n1SwKioA44z-169" value="" style="endArrow=none;html=1;rounded=0;exitX=0.719;exitY=0.057;exitDx=0;exitDy=0;exitPerimeter=0;entryX=0;entryY=1;entryDx=0;entryDy=0;fontSize=15;" parent="1" source="BxqiN3wB2n1SwKioA44z-165" target="BxqiN3wB2n1SwKioA44z-160" edge="1">
          <mxGeometry relative="1" as="geometry">
            <mxPoint x="1000" y="1076" as="sourcePoint" />
            <mxPoint x="1115" y="1105" as="targetPoint" />
          </mxGeometry>
        </mxCell>
        <mxCell id="BxqiN3wB2n1SwKioA44z-171" value="" style="endArrow=none;html=1;rounded=0;exitX=0;exitY=0.5;exitDx=0;exitDy=0;fontSize=15;" parent="1" source="BxqiN3wB2n1SwKioA44z-168" edge="1">
          <mxGeometry relative="1" as="geometry">
            <mxPoint x="1020" y="1096" as="sourcePoint" />
            <mxPoint x="1185" y="1095" as="targetPoint" />
          </mxGeometry>
        </mxCell>
        <mxCell id="BxqiN3wB2n1SwKioA44z-172" value="" style="endArrow=none;html=1;rounded=0;exitX=1;exitY=0.75;exitDx=0;exitDy=0;entryX=0;entryY=0.5;entryDx=0;entryDy=0;fontSize=15;" parent="1" source="BxqiN3wB2n1SwKioA44z-160" target="BxqiN3wB2n1SwKioA44z-167" edge="1">
          <mxGeometry relative="1" as="geometry">
            <mxPoint x="1030" y="1106" as="sourcePoint" />
            <mxPoint x="1145" y="1135" as="targetPoint" />
          </mxGeometry>
        </mxCell>
        <mxCell id="BxqiN3wB2n1SwKioA44z-173" value="Admission" style="whiteSpace=wrap;html=1;align=center;fontSize=15;" parent="1" vertex="1">
          <mxGeometry x="1375" y="790" width="100" height="40" as="geometry" />
        </mxCell>
        <mxCell id="BxqiN3wB2n1SwKioA44z-174" value="&lt;u style=&quot;font-size: 15px;&quot;&gt;AdmissionID&lt;/u&gt;" style="ellipse;whiteSpace=wrap;html=1;align=center;fontSize=15;" parent="1" vertex="1">
          <mxGeometry x="1395" y="730" width="100" height="40" as="geometry" />
        </mxCell>
        <mxCell id="BxqiN3wB2n1SwKioA44z-175" value="Discharge Date" style="ellipse;whiteSpace=wrap;html=1;align=center;fontSize=15;" parent="1" vertex="1">
          <mxGeometry x="1290" y="690" width="100" height="40" as="geometry" />
        </mxCell>
        <mxCell id="BxqiN3wB2n1SwKioA44z-176" value="" style="endArrow=none;html=1;rounded=0;entryX=0.407;entryY=0.987;entryDx=0;entryDy=0;entryPerimeter=0;exitX=0.5;exitY=0;exitDx=0;exitDy=0;fontSize=15;" parent="1" source="BxqiN3wB2n1SwKioA44z-173" target="BxqiN3wB2n1SwKioA44z-174" edge="1">
          <mxGeometry relative="1" as="geometry">
            <mxPoint x="1415" y="810" as="sourcePoint" />
            <mxPoint x="1565" y="820" as="targetPoint" />
          </mxGeometry>
        </mxCell>
        <mxCell id="BxqiN3wB2n1SwKioA44z-177" value="" style="endArrow=none;html=1;rounded=0;exitX=0.5;exitY=1;exitDx=0;exitDy=0;entryX=0;entryY=0.5;entryDx=0;entryDy=0;fontSize=15;" parent="1" source="BxqiN3wB2n1SwKioA44z-175" target="BxqiN3wB2n1SwKioA44z-173" edge="1">
          <mxGeometry relative="1" as="geometry">
            <mxPoint x="1255" y="830" as="sourcePoint" />
            <mxPoint x="1415" y="830" as="targetPoint" />
          </mxGeometry>
        </mxCell>
        <mxCell id="BxqiN3wB2n1SwKioA44z-178" value="PatientID" style="ellipse;whiteSpace=wrap;html=1;align=center;fontSize=15;" parent="1" vertex="1">
          <mxGeometry x="1515" y="780" width="100" height="40" as="geometry" />
        </mxCell>
        <mxCell id="BxqiN3wB2n1SwKioA44z-179" value="RoomID" style="ellipse;whiteSpace=wrap;html=1;align=center;fontSize=15;" parent="1" vertex="1">
          <mxGeometry x="1495" y="840" width="100" height="40" as="geometry" />
        </mxCell>
        <mxCell id="BxqiN3wB2n1SwKioA44z-180" value="" style="endArrow=none;html=1;rounded=0;exitX=0;exitY=0.5;exitDx=0;exitDy=0;fontSize=15;" parent="1" source="BxqiN3wB2n1SwKioA44z-179" edge="1">
          <mxGeometry relative="1" as="geometry">
            <mxPoint x="1310" y="831" as="sourcePoint" />
            <mxPoint x="1475" y="830" as="targetPoint" />
          </mxGeometry>
        </mxCell>
        <mxCell id="BxqiN3wB2n1SwKioA44z-181" value="" style="endArrow=none;html=1;rounded=0;exitX=1;exitY=0.75;exitDx=0;exitDy=0;entryX=0;entryY=0.5;entryDx=0;entryDy=0;fontSize=15;" parent="1" source="BxqiN3wB2n1SwKioA44z-173" target="BxqiN3wB2n1SwKioA44z-178" edge="1">
          <mxGeometry relative="1" as="geometry">
            <mxPoint x="1320" y="841" as="sourcePoint" />
            <mxPoint x="1435" y="870" as="targetPoint" />
          </mxGeometry>
        </mxCell>
        <mxCell id="BxqiN3wB2n1SwKioA44z-182" value="AdmissionDate" style="ellipse;whiteSpace=wrap;html=1;align=center;fontSize=15;" parent="1" vertex="1">
          <mxGeometry x="1345" y="855" width="100" height="40" as="geometry" />
        </mxCell>
        <mxCell id="BxqiN3wB2n1SwKioA44z-183" value="" style="endArrow=none;html=1;rounded=0;exitX=0.5;exitY=0;exitDx=0;exitDy=0;entryX=0.5;entryY=1;entryDx=0;entryDy=0;fontSize=15;" parent="1" source="BxqiN3wB2n1SwKioA44z-182" target="BxqiN3wB2n1SwKioA44z-173" edge="1">
          <mxGeometry relative="1" as="geometry">
            <mxPoint x="1585" y="920" as="sourcePoint" />
            <mxPoint x="1485" y="840" as="targetPoint" />
          </mxGeometry>
        </mxCell>
        <mxCell id="BxqiN3wB2n1SwKioA44z-184" value="Name" style="ellipse;whiteSpace=wrap;html=1;align=center;fontSize=15;" parent="1" vertex="1">
          <mxGeometry x="280" y="380" width="100" height="40" as="geometry" />
        </mxCell>
        <mxCell id="BxqiN3wB2n1SwKioA44z-185" value="" style="endArrow=none;html=1;rounded=0;exitX=0;exitY=0;exitDx=0;exitDy=0;entryX=0.5;entryY=1;entryDx=0;entryDy=0;fontSize=15;" parent="1" source="KkVMsKjmulq4ZyXbtEUd-2" target="BxqiN3wB2n1SwKioA44z-184" edge="1">
          <mxGeometry relative="1" as="geometry">
            <mxPoint x="440" y="450" as="sourcePoint" />
            <mxPoint x="460" y="390" as="targetPoint" />
          </mxGeometry>
        </mxCell>
        <mxCell id="BxqiN3wB2n1SwKioA44z-186" value="" style="endArrow=none;html=1;rounded=0;exitX=1;exitY=0;exitDx=0;exitDy=0;entryX=0.5;entryY=1;entryDx=0;entryDy=0;fontSize=15;" parent="1" source="BxqiN3wB2n1SwKioA44z-184" target="KkVMsKjmulq4ZyXbtEUd-6" edge="1">
          <mxGeometry relative="1" as="geometry">
            <mxPoint x="390" y="450" as="sourcePoint" />
            <mxPoint x="340" y="430" as="targetPoint" />
          </mxGeometry>
        </mxCell>
        <mxCell id="BxqiN3wB2n1SwKioA44z-187" value="" style="endArrow=none;html=1;rounded=0;exitX=0;exitY=0;exitDx=0;exitDy=0;entryX=0.5;entryY=1;entryDx=0;entryDy=0;fontSize=15;" parent="1" source="BxqiN3wB2n1SwKioA44z-184" target="KkVMsKjmulq4ZyXbtEUd-5" edge="1">
          <mxGeometry relative="1" as="geometry">
            <mxPoint x="375" y="396" as="sourcePoint" />
            <mxPoint x="331" y="360" as="targetPoint" />
          </mxGeometry>
        </mxCell>
        <mxCell id="BxqiN3wB2n1SwKioA44z-189" value="FName" style="ellipse;whiteSpace=wrap;html=1;align=center;fontSize=15;" parent="1" vertex="1">
          <mxGeometry x="70" y="1315" width="100" height="40" as="geometry" />
        </mxCell>
        <mxCell id="BxqiN3wB2n1SwKioA44z-190" value="LName" style="ellipse;whiteSpace=wrap;html=1;align=center;fontSize=15;" parent="1" vertex="1">
          <mxGeometry x="175" y="1270" width="100" height="40" as="geometry" />
        </mxCell>
        <mxCell id="BxqiN3wB2n1SwKioA44z-191" value="Name" style="ellipse;whiteSpace=wrap;html=1;align=center;fontSize=15;" parent="1" vertex="1">
          <mxGeometry x="190" y="1375" width="100" height="40" as="geometry" />
        </mxCell>
        <mxCell id="BxqiN3wB2n1SwKioA44z-192" value="" style="endArrow=none;html=1;rounded=0;exitX=1;exitY=0;exitDx=0;exitDy=0;entryX=0.5;entryY=1;entryDx=0;entryDy=0;fontSize=15;" parent="1" source="BxqiN3wB2n1SwKioA44z-191" target="BxqiN3wB2n1SwKioA44z-190" edge="1">
          <mxGeometry relative="1" as="geometry">
            <mxPoint x="300" y="1445" as="sourcePoint" />
            <mxPoint x="231" y="1345" as="targetPoint" />
          </mxGeometry>
        </mxCell>
        <mxCell id="BxqiN3wB2n1SwKioA44z-193" value="" style="endArrow=none;html=1;rounded=0;exitX=0;exitY=0;exitDx=0;exitDy=0;entryX=0.5;entryY=1;entryDx=0;entryDy=0;fontSize=15;" parent="1" source="BxqiN3wB2n1SwKioA44z-191" target="BxqiN3wB2n1SwKioA44z-189" edge="1">
          <mxGeometry relative="1" as="geometry">
            <mxPoint x="285" y="1391" as="sourcePoint" />
            <mxPoint x="241" y="1355" as="targetPoint" />
          </mxGeometry>
        </mxCell>
        <mxCell id="BxqiN3wB2n1SwKioA44z-194" value="" style="endArrow=none;html=1;rounded=0;exitX=0;exitY=0.25;exitDx=0;exitDy=0;entryX=0.784;entryY=0.987;entryDx=0;entryDy=0;entryPerimeter=0;fontSize=15;" parent="1" source="BxqiN3wB2n1SwKioA44z-1" target="BxqiN3wB2n1SwKioA44z-191" edge="1">
          <mxGeometry relative="1" as="geometry">
            <mxPoint x="370" y="1445" as="sourcePoint" />
            <mxPoint x="350" y="1385" as="targetPoint" />
          </mxGeometry>
        </mxCell>
        <mxCell id="BxqiN3wB2n1SwKioA44z-196" value="FName" style="ellipse;whiteSpace=wrap;html=1;align=center;fontSize=15;" parent="1" vertex="1">
          <mxGeometry x="650" y="1830" width="100" height="40" as="geometry" />
        </mxCell>
        <mxCell id="BxqiN3wB2n1SwKioA44z-197" value="LName" style="ellipse;whiteSpace=wrap;html=1;align=center;fontSize=15;" parent="1" vertex="1">
          <mxGeometry x="761" y="1820" width="100" height="40" as="geometry" />
        </mxCell>
        <mxCell id="BxqiN3wB2n1SwKioA44z-198" value="Name" style="ellipse;whiteSpace=wrap;html=1;align=center;fontSize=15;" parent="1" vertex="1">
          <mxGeometry x="770" y="1890" width="100" height="40" as="geometry" />
        </mxCell>
        <mxCell id="BxqiN3wB2n1SwKioA44z-199" value="" style="endArrow=none;html=1;rounded=0;exitX=1;exitY=0;exitDx=0;exitDy=0;entryX=0.5;entryY=1;entryDx=0;entryDy=0;fontSize=15;" parent="1" source="BxqiN3wB2n1SwKioA44z-198" target="BxqiN3wB2n1SwKioA44z-197" edge="1">
          <mxGeometry relative="1" as="geometry">
            <mxPoint x="880" y="1960" as="sourcePoint" />
            <mxPoint x="830" y="1940" as="targetPoint" />
          </mxGeometry>
        </mxCell>
        <mxCell id="BxqiN3wB2n1SwKioA44z-200" value="" style="endArrow=none;html=1;rounded=0;exitX=0;exitY=0;exitDx=0;exitDy=0;entryX=0.5;entryY=1;entryDx=0;entryDy=0;fontSize=15;" parent="1" source="BxqiN3wB2n1SwKioA44z-198" target="BxqiN3wB2n1SwKioA44z-196" edge="1">
          <mxGeometry relative="1" as="geometry">
            <mxPoint x="865" y="1906" as="sourcePoint" />
            <mxPoint x="821" y="1870" as="targetPoint" />
          </mxGeometry>
        </mxCell>
        <mxCell id="BxqiN3wB2n1SwKioA44z-201" value="" style="endArrow=none;html=1;rounded=0;exitX=0.5;exitY=1;exitDx=0;exitDy=0;entryX=1;entryY=0;entryDx=0;entryDy=0;fontSize=15;" parent="1" source="BxqiN3wB2n1SwKioA44z-198" target="BxqiN3wB2n1SwKioA44z-72" edge="1">
          <mxGeometry relative="1" as="geometry">
            <mxPoint x="865" y="1906" as="sourcePoint" />
            <mxPoint x="821" y="1870" as="targetPoint" />
          </mxGeometry>
        </mxCell>
        <mxCell id="BxqiN3wB2n1SwKioA44z-203" value="Has" style="rhombus;whiteSpace=wrap;html=1;fontSize=15;" parent="1" vertex="1">
          <mxGeometry x="355" y="640" width="80" height="80" as="geometry" />
        </mxCell>
        <mxCell id="BxqiN3wB2n1SwKioA44z-206" value="&lt;b style=&quot;font-size: 15px;&quot;&gt;&lt;font style=&quot;font-size: 15px;&quot;&gt;1&lt;/font&gt;&lt;/b&gt;" style="text;html=1;align=center;verticalAlign=middle;resizable=0;points=[];autosize=1;strokeColor=none;fillColor=none;fontSize=15;" parent="1" vertex="1">
          <mxGeometry x="425" y="488" width="30" height="30" as="geometry" />
        </mxCell>
        <mxCell id="BxqiN3wB2n1SwKioA44z-207" value="&lt;b style=&quot;font-size: 15px;&quot;&gt;&lt;font style=&quot;font-size: 15px;&quot;&gt;M&lt;/font&gt;&lt;/b&gt;" style="text;html=1;align=center;verticalAlign=middle;resizable=0;points=[];autosize=1;strokeColor=none;fillColor=none;fontSize=15;" parent="1" vertex="1">
          <mxGeometry x="295" y="875" width="40" height="30" as="geometry" />
        </mxCell>
        <mxCell id="bs-LM55962rm8Q-rNUqh-1" value="Has" style="rhombus;whiteSpace=wrap;html=1;" vertex="1" parent="1">
          <mxGeometry x="355" y="1125" width="80" height="80" as="geometry" />
        </mxCell>
        <mxCell id="bs-LM55962rm8Q-rNUqh-2" value="" style="shape=link;html=1;rounded=0;exitX=0.25;exitY=0;exitDx=0;exitDy=0;entryX=0.5;entryY=1;entryDx=0;entryDy=0;" edge="1" parent="1" source="BxqiN3wB2n1SwKioA44z-20" target="BxqiN3wB2n1SwKioA44z-203">
          <mxGeometry width="100" relative="1" as="geometry">
            <mxPoint x="480" y="730" as="sourcePoint" />
            <mxPoint x="580" y="730" as="targetPoint" />
          </mxGeometry>
        </mxCell>
        <mxCell id="bs-LM55962rm8Q-rNUqh-3" value="" style="shape=link;html=1;rounded=0;exitX=0.5;exitY=0;exitDx=0;exitDy=0;entryX=0.75;entryY=1;entryDx=0;entryDy=0;" edge="1" parent="1" source="BxqiN3wB2n1SwKioA44z-203" target="KkVMsKjmulq4ZyXbtEUd-2">
          <mxGeometry width="100" relative="1" as="geometry">
            <mxPoint x="510" y="710" as="sourcePoint" />
            <mxPoint x="610" y="710" as="targetPoint" />
          </mxGeometry>
        </mxCell>
        <mxCell id="bs-LM55962rm8Q-rNUqh-7" value="" style="shape=link;html=1;rounded=0;exitX=0.377;exitY=0.976;exitDx=0;exitDy=0;exitPerimeter=0;entryX=0.5;entryY=0;entryDx=0;entryDy=0;" edge="1" parent="1" source="BxqiN3wB2n1SwKioA44z-20" target="bs-LM55962rm8Q-rNUqh-1">
          <mxGeometry width="100" relative="1" as="geometry">
            <mxPoint x="230" y="1110" as="sourcePoint" />
            <mxPoint x="390" y="1120" as="targetPoint" />
          </mxGeometry>
        </mxCell>
        <mxCell id="bs-LM55962rm8Q-rNUqh-8" value="1" style="text;html=1;align=center;verticalAlign=middle;resizable=0;points=[];autosize=1;strokeColor=none;fillColor=none;" vertex="1" parent="1">
          <mxGeometry x="415" y="1395" width="30" height="30" as="geometry" />
        </mxCell>
        <mxCell id="bs-LM55962rm8Q-rNUqh-9" value="M" style="text;html=1;align=center;verticalAlign=middle;resizable=0;points=[];autosize=1;strokeColor=none;fillColor=none;" vertex="1" parent="1">
          <mxGeometry x="355" y="960" width="30" height="30" as="geometry" />
        </mxCell>
        <mxCell id="bs-LM55962rm8Q-rNUqh-10" value="" style="endArrow=none;html=1;rounded=0;entryX=0.5;entryY=1;entryDx=0;entryDy=0;" edge="1" parent="1" source="BxqiN3wB2n1SwKioA44z-1" target="bs-LM55962rm8Q-rNUqh-1">
          <mxGeometry width="50" height="50" relative="1" as="geometry">
            <mxPoint x="670" y="1250" as="sourcePoint" />
            <mxPoint x="720" y="1200" as="targetPoint" />
          </mxGeometry>
        </mxCell>
        <mxCell id="bs-LM55962rm8Q-rNUqh-11" value="Has" style="rhombus;whiteSpace=wrap;html=1;" vertex="1" parent="1">
          <mxGeometry x="890" y="440" width="80" height="80" as="geometry" />
        </mxCell>
        <mxCell id="bs-LM55962rm8Q-rNUqh-14" value="" style="shape=link;html=1;rounded=0;exitX=1;exitY=0.5;exitDx=0;exitDy=0;entryX=0;entryY=0.75;entryDx=0;entryDy=0;" edge="1" parent="1" source="bs-LM55962rm8Q-rNUqh-11" target="BxqiN3wB2n1SwKioA44z-55">
          <mxGeometry width="100" relative="1" as="geometry">
            <mxPoint x="1040" y="330" as="sourcePoint" />
            <mxPoint x="1140" y="330" as="targetPoint" />
          </mxGeometry>
        </mxCell>
        <mxCell id="bs-LM55962rm8Q-rNUqh-15" value="1" style="text;html=1;align=center;verticalAlign=middle;resizable=0;points=[];autosize=1;strokeColor=none;fillColor=none;" vertex="1" parent="1">
          <mxGeometry x="500" y="435" width="30" height="30" as="geometry" />
        </mxCell>
        <mxCell id="bs-LM55962rm8Q-rNUqh-16" value="M" style="text;html=1;align=center;verticalAlign=middle;resizable=0;points=[];autosize=1;strokeColor=none;fillColor=none;" vertex="1" parent="1">
          <mxGeometry x="990" y="485" width="30" height="30" as="geometry" />
        </mxCell>
        <mxCell id="bs-LM55962rm8Q-rNUqh-17" value="works in" style="rhombus;whiteSpace=wrap;html=1;" vertex="1" parent="1">
          <mxGeometry x="325" y="1565" width="80" height="80" as="geometry" />
        </mxCell>
        <mxCell id="bs-LM55962rm8Q-rNUqh-19" value="" style="shape=link;html=1;rounded=0;exitX=0.75;exitY=0;exitDx=0;exitDy=0;entryX=0.5;entryY=1;entryDx=0;entryDy=0;" edge="1" parent="1" source="BxqiN3wB2n1SwKioA44z-37" target="bs-LM55962rm8Q-rNUqh-17">
          <mxGeometry width="100" relative="1" as="geometry">
            <mxPoint x="240" y="1640" as="sourcePoint" />
            <mxPoint x="340" y="1640" as="targetPoint" />
          </mxGeometry>
        </mxCell>
        <mxCell id="bs-LM55962rm8Q-rNUqh-20" value="" style="shape=link;html=1;rounded=0;exitX=0.5;exitY=0;exitDx=0;exitDy=0;entryX=0.25;entryY=1;entryDx=0;entryDy=0;" edge="1" parent="1" source="bs-LM55962rm8Q-rNUqh-17" target="BxqiN3wB2n1SwKioA44z-1">
          <mxGeometry width="100" relative="1" as="geometry">
            <mxPoint x="340" y="1550" as="sourcePoint" />
            <mxPoint x="440" y="1550" as="targetPoint" />
          </mxGeometry>
        </mxCell>
        <mxCell id="bs-LM55962rm8Q-rNUqh-21" value="M" style="text;html=1;align=center;verticalAlign=middle;resizable=0;points=[];autosize=1;strokeColor=none;fillColor=none;" vertex="1" parent="1">
          <mxGeometry x="405" y="1488" width="30" height="30" as="geometry" />
        </mxCell>
        <mxCell id="bs-LM55962rm8Q-rNUqh-22" value="1" style="text;html=1;align=center;verticalAlign=middle;resizable=0;points=[];autosize=1;strokeColor=none;fillColor=none;" vertex="1" parent="1">
          <mxGeometry x="245" y="1630" width="30" height="30" as="geometry" />
        </mxCell>
        <mxCell id="bs-LM55962rm8Q-rNUqh-23" value="gives" style="rhombus;whiteSpace=wrap;html=1;" vertex="1" parent="1">
          <mxGeometry x="840" y="760" width="80" height="80" as="geometry" />
        </mxCell>
        <mxCell id="bs-LM55962rm8Q-rNUqh-24" value="" style="shape=link;html=1;rounded=0;exitX=0;exitY=0.5;exitDx=0;exitDy=0;entryX=0.75;entryY=0;entryDx=0;entryDy=0;" edge="1" parent="1" source="bs-LM55962rm8Q-rNUqh-23" target="BxqiN3wB2n1SwKioA44z-1">
          <mxGeometry width="100" relative="1" as="geometry">
            <mxPoint x="790" y="880" as="sourcePoint" />
            <mxPoint x="890" y="880" as="targetPoint" />
          </mxGeometry>
        </mxCell>
        <mxCell id="bs-LM55962rm8Q-rNUqh-25" value="" style="shape=link;html=1;rounded=0;exitX=1;exitY=0.5;exitDx=0;exitDy=0;entryX=0.5;entryY=1;entryDx=0;entryDy=0;" edge="1" parent="1" source="bs-LM55962rm8Q-rNUqh-23" target="BxqiN3wB2n1SwKioA44z-55">
          <mxGeometry width="100" relative="1" as="geometry">
            <mxPoint x="840" y="650" as="sourcePoint" />
            <mxPoint x="940" y="650" as="targetPoint" />
          </mxGeometry>
        </mxCell>
        <mxCell id="bs-LM55962rm8Q-rNUqh-27" value="M" style="text;html=1;align=center;verticalAlign=middle;resizable=0;points=[];autosize=1;strokeColor=none;fillColor=none;" vertex="1" parent="1">
          <mxGeometry x="1370" y="550" width="30" height="30" as="geometry" />
        </mxCell>
        <mxCell id="bs-LM55962rm8Q-rNUqh-29" value="" style="shape=link;html=1;rounded=0;entryX=0.898;entryY=-0.103;entryDx=0;entryDy=0;entryPerimeter=0;exitX=1;exitY=0.5;exitDx=0;exitDy=0;" edge="1" parent="1" source="bs-LM55962rm8Q-rNUqh-30" target="BxqiN3wB2n1SwKioA44z-72">
          <mxGeometry width="100" relative="1" as="geometry">
            <mxPoint x="480" y="1810" as="sourcePoint" />
            <mxPoint x="600" y="1880" as="targetPoint" />
          </mxGeometry>
        </mxCell>
        <mxCell id="bs-LM55962rm8Q-rNUqh-30" value="Works in" style="rhombus;whiteSpace=wrap;html=1;" vertex="1" parent="1">
          <mxGeometry x="230" y="1810" width="80" height="80" as="geometry" />
        </mxCell>
        <mxCell id="bs-LM55962rm8Q-rNUqh-31" value="" style="shape=link;html=1;rounded=0;exitX=0.5;exitY=1;exitDx=0;exitDy=0;" edge="1" parent="1" source="BxqiN3wB2n1SwKioA44z-37" target="bs-LM55962rm8Q-rNUqh-30">
          <mxGeometry width="100" relative="1" as="geometry">
            <mxPoint x="60" y="1810" as="sourcePoint" />
            <mxPoint x="160" y="1810" as="targetPoint" />
          </mxGeometry>
        </mxCell>
        <mxCell id="bs-LM55962rm8Q-rNUqh-32" value="1" style="text;html=1;align=center;verticalAlign=middle;resizable=0;points=[];autosize=1;strokeColor=none;fillColor=none;" vertex="1" parent="1">
          <mxGeometry x="180" y="1730" width="30" height="30" as="geometry" />
        </mxCell>
        <mxCell id="bs-LM55962rm8Q-rNUqh-34" value="M" style="text;html=1;align=center;verticalAlign=middle;resizable=0;points=[];autosize=1;strokeColor=none;fillColor=none;" vertex="1" parent="1">
          <mxGeometry x="310" y="1875" width="30" height="30" as="geometry" />
        </mxCell>
        <mxCell id="bs-LM55962rm8Q-rNUqh-35" value="has" style="rhombus;whiteSpace=wrap;html=1;" vertex="1" parent="1">
          <mxGeometry x="475" y="200" width="80" height="80" as="geometry" />
        </mxCell>
        <mxCell id="bs-LM55962rm8Q-rNUqh-36" value="" style="shape=link;html=1;rounded=0;exitX=0.5;exitY=1;exitDx=0;exitDy=0;entryX=1;entryY=0;entryDx=0;entryDy=0;" edge="1" parent="1" source="bs-LM55962rm8Q-rNUqh-35" target="KkVMsKjmulq4ZyXbtEUd-2">
          <mxGeometry width="100" relative="1" as="geometry">
            <mxPoint x="630" y="320" as="sourcePoint" />
            <mxPoint x="730" y="320" as="targetPoint" />
          </mxGeometry>
        </mxCell>
        <mxCell id="bs-LM55962rm8Q-rNUqh-37" value="" style="shape=link;html=1;rounded=0;exitX=0.892;exitY=0.312;exitDx=0;exitDy=0;exitPerimeter=0;entryX=0;entryY=1;entryDx=0;entryDy=0;" edge="1" parent="1" source="bs-LM55962rm8Q-rNUqh-35" target="BxqiN3wB2n1SwKioA44z-87">
          <mxGeometry width="100" relative="1" as="geometry">
            <mxPoint x="590" y="340" as="sourcePoint" />
            <mxPoint x="690" y="340" as="targetPoint" />
          </mxGeometry>
        </mxCell>
        <mxCell id="bs-LM55962rm8Q-rNUqh-38" value="1" style="text;html=1;align=center;verticalAlign=middle;resizable=0;points=[];autosize=1;strokeColor=none;fillColor=none;" vertex="1" parent="1">
          <mxGeometry x="475" y="270" width="30" height="30" as="geometry" />
        </mxCell>
        <mxCell id="bs-LM55962rm8Q-rNUqh-39" value="M" style="text;html=1;align=center;verticalAlign=middle;resizable=0;points=[];autosize=1;strokeColor=none;fillColor=none;" vertex="1" parent="1">
          <mxGeometry x="620" y="165" width="30" height="30" as="geometry" />
        </mxCell>
        <mxCell id="bs-LM55962rm8Q-rNUqh-40" value="Has" style="rhombus;whiteSpace=wrap;html=1;" vertex="1" parent="1">
          <mxGeometry x="830" y="570" width="80" height="80" as="geometry" />
        </mxCell>
        <mxCell id="bs-LM55962rm8Q-rNUqh-46" value="1" style="text;html=1;align=center;verticalAlign=middle;resizable=0;points=[];autosize=1;strokeColor=none;fillColor=none;" vertex="1" parent="1">
          <mxGeometry x="1325" y="820" width="30" height="30" as="geometry" />
        </mxCell>
        <mxCell id="bs-LM55962rm8Q-rNUqh-47" value="1" style="text;html=1;align=center;verticalAlign=middle;resizable=0;points=[];autosize=1;strokeColor=none;fillColor=none;" vertex="1" parent="1">
          <mxGeometry x="475" y="540" width="30" height="30" as="geometry" />
        </mxCell>
        <mxCell id="bs-LM55962rm8Q-rNUqh-48" value="Have" style="rhombus;whiteSpace=wrap;html=1;" vertex="1" parent="1">
          <mxGeometry x="1720" y="580" width="80" height="80" as="geometry" />
        </mxCell>
        <mxCell id="bs-LM55962rm8Q-rNUqh-49" value="" style="endArrow=none;html=1;rounded=0;exitX=1;exitY=0.5;exitDx=0;exitDy=0;entryX=0;entryY=0.75;entryDx=0;entryDy=0;" edge="1" parent="1" source="bs-LM55962rm8Q-rNUqh-48" target="BxqiN3wB2n1SwKioA44z-102">
          <mxGeometry width="50" height="50" relative="1" as="geometry">
            <mxPoint x="912" y="618" as="sourcePoint" />
            <mxPoint x="1385" y="830" as="targetPoint" />
          </mxGeometry>
        </mxCell>
        <mxCell id="bs-LM55962rm8Q-rNUqh-52" value="1" style="text;html=1;align=center;verticalAlign=middle;resizable=0;points=[];autosize=1;strokeColor=none;fillColor=none;" vertex="1" parent="1">
          <mxGeometry x="2010" y="670" width="30" height="30" as="geometry" />
        </mxCell>
        <mxCell id="bs-LM55962rm8Q-rNUqh-53" value="Has" style="rhombus;whiteSpace=wrap;html=1;" vertex="1" parent="1">
          <mxGeometry x="850" y="270" width="80" height="80" as="geometry" />
        </mxCell>
        <mxCell id="bs-LM55962rm8Q-rNUqh-55" value="" style="endArrow=none;html=1;rounded=0;exitX=0.75;exitY=0;exitDx=0;exitDy=0;entryX=0;entryY=0.5;entryDx=0;entryDy=0;" edge="1" parent="1" source="KkVMsKjmulq4ZyXbtEUd-2" target="bs-LM55962rm8Q-rNUqh-53">
          <mxGeometry width="50" height="50" relative="1" as="geometry">
            <mxPoint x="760" y="400" as="sourcePoint" />
            <mxPoint x="800" y="310" as="targetPoint" />
          </mxGeometry>
        </mxCell>
        <mxCell id="bs-LM55962rm8Q-rNUqh-56" value="" style="shape=link;html=1;rounded=0;exitX=1;exitY=0.5;exitDx=0;exitDy=0;entryX=0;entryY=1;entryDx=0;entryDy=0;" edge="1" parent="1" source="bs-LM55962rm8Q-rNUqh-53" target="BxqiN3wB2n1SwKioA44z-125">
          <mxGeometry width="100" relative="1" as="geometry">
            <mxPoint x="1060" y="220" as="sourcePoint" />
            <mxPoint x="1160" y="220" as="targetPoint" />
          </mxGeometry>
        </mxCell>
        <mxCell id="bs-LM55962rm8Q-rNUqh-57" value="1" style="text;html=1;align=center;verticalAlign=middle;resizable=0;points=[];autosize=1;strokeColor=none;fillColor=none;" vertex="1" parent="1">
          <mxGeometry x="540" y="350" width="30" height="30" as="geometry" />
        </mxCell>
        <mxCell id="bs-LM55962rm8Q-rNUqh-58" value="1" style="text;html=1;align=center;verticalAlign=middle;resizable=0;points=[];autosize=1;strokeColor=none;fillColor=none;" vertex="1" parent="1">
          <mxGeometry x="1345" y="170" width="30" height="30" as="geometry" />
        </mxCell>
        <mxCell id="bs-LM55962rm8Q-rNUqh-59" value="Have" style="rhombus;whiteSpace=wrap;html=1;" vertex="1" parent="1">
          <mxGeometry x="1040" y="1930" width="80" height="80" as="geometry" />
        </mxCell>
        <mxCell id="bs-LM55962rm8Q-rNUqh-60" value="" style="shape=link;html=1;rounded=0;exitX=1;exitY=0.5;exitDx=0;exitDy=0;entryX=0;entryY=0.75;entryDx=0;entryDy=0;" edge="1" parent="1" source="bs-LM55962rm8Q-rNUqh-59" target="BxqiN3wB2n1SwKioA44z-138">
          <mxGeometry width="100" relative="1" as="geometry">
            <mxPoint x="1130" y="1970" as="sourcePoint" />
            <mxPoint x="1280" y="1980" as="targetPoint" />
          </mxGeometry>
        </mxCell>
        <mxCell id="bs-LM55962rm8Q-rNUqh-61" value="" style="shape=link;html=1;rounded=0;exitX=1;exitY=0.25;exitDx=0;exitDy=0;entryX=0;entryY=0.5;entryDx=0;entryDy=0;" edge="1" parent="1" source="BxqiN3wB2n1SwKioA44z-72" target="bs-LM55962rm8Q-rNUqh-59">
          <mxGeometry width="100" relative="1" as="geometry">
            <mxPoint x="860" y="1970" as="sourcePoint" />
            <mxPoint x="960" y="1970" as="targetPoint" />
          </mxGeometry>
        </mxCell>
        <mxCell id="bs-LM55962rm8Q-rNUqh-62" value="Has" style="rhombus;whiteSpace=wrap;html=1;" vertex="1" parent="1">
          <mxGeometry x="830" y="955" width="80" height="80" as="geometry" />
        </mxCell>
        <mxCell id="bs-LM55962rm8Q-rNUqh-63" value="" style="shape=link;html=1;rounded=0;entryX=0.5;entryY=0;entryDx=0;entryDy=0;" edge="1" parent="1" target="bs-LM55962rm8Q-rNUqh-62">
          <mxGeometry width="100" relative="1" as="geometry">
            <mxPoint x="1080" y="1070" as="sourcePoint" />
            <mxPoint x="1010" y="1275" as="targetPoint" />
          </mxGeometry>
        </mxCell>
        <mxCell id="bs-LM55962rm8Q-rNUqh-64" value="" style="endArrow=none;html=1;rounded=0;" edge="1" parent="1">
          <mxGeometry width="50" height="50" relative="1" as="geometry">
            <mxPoint x="820" y="180" as="sourcePoint" />
            <mxPoint x="870" y="130" as="targetPoint" />
          </mxGeometry>
        </mxCell>
        <mxCell id="bs-LM55962rm8Q-rNUqh-65" value="" style="endArrow=none;html=1;rounded=0;entryX=0;entryY=0.5;entryDx=0;entryDy=0;exitX=0.75;exitY=1;exitDx=0;exitDy=0;" edge="1" parent="1" source="KkVMsKjmulq4ZyXbtEUd-2" target="bs-LM55962rm8Q-rNUqh-62">
          <mxGeometry width="50" height="50" relative="1" as="geometry">
            <mxPoint x="210" y="290" as="sourcePoint" />
            <mxPoint x="260" y="240" as="targetPoint" />
          </mxGeometry>
        </mxCell>
        <mxCell id="bs-LM55962rm8Q-rNUqh-70" value="have" style="rhombus;whiteSpace=wrap;html=1;" vertex="1" parent="1">
          <mxGeometry x="335" y="195" width="80" height="80" as="geometry" />
        </mxCell>
        <mxCell id="bs-LM55962rm8Q-rNUqh-74" value="" style="shape=link;html=1;rounded=0;exitX=0.75;exitY=1;exitDx=0;exitDy=0;entryX=0.5;entryY=0;entryDx=0;entryDy=0;" edge="1" parent="1" source="BxqiN3wB2n1SwKioA44z-149" target="bs-LM55962rm8Q-rNUqh-70">
          <mxGeometry width="100" relative="1" as="geometry">
            <mxPoint x="220" y="150" as="sourcePoint" />
            <mxPoint x="320" y="150" as="targetPoint" />
          </mxGeometry>
        </mxCell>
        <mxCell id="bs-LM55962rm8Q-rNUqh-76" value="1" style="text;html=1;align=center;verticalAlign=middle;resizable=0;points=[];autosize=1;strokeColor=none;fillColor=none;" vertex="1" parent="1">
          <mxGeometry x="335" y="260" width="30" height="30" as="geometry" />
        </mxCell>
        <mxCell id="bs-LM55962rm8Q-rNUqh-77" value="M" style="text;html=1;align=center;verticalAlign=middle;resizable=0;points=[];autosize=1;strokeColor=none;fillColor=none;" vertex="1" parent="1">
          <mxGeometry x="290" y="80" width="30" height="30" as="geometry" />
        </mxCell>
        <mxCell id="bs-LM55962rm8Q-rNUqh-78" value="" style="endArrow=none;html=1;rounded=0;exitX=0.5;exitY=0;exitDx=0;exitDy=0;entryX=0.5;entryY=1;entryDx=0;entryDy=0;" edge="1" parent="1" source="KkVMsKjmulq4ZyXbtEUd-2" target="bs-LM55962rm8Q-rNUqh-70">
          <mxGeometry width="50" height="50" relative="1" as="geometry">
            <mxPoint x="110" y="250" as="sourcePoint" />
            <mxPoint x="160" y="200" as="targetPoint" />
          </mxGeometry>
        </mxCell>
        <mxCell id="bs-LM55962rm8Q-rNUqh-79" value="" style="endArrow=none;html=1;rounded=0;entryX=0;entryY=0.5;entryDx=0;entryDy=0;exitX=1;exitY=0.5;exitDx=0;exitDy=0;" edge="1" parent="1" source="KkVMsKjmulq4ZyXbtEUd-2" target="bs-LM55962rm8Q-rNUqh-11">
          <mxGeometry width="50" height="50" relative="1" as="geometry">
            <mxPoint x="760" y="500" as="sourcePoint" />
            <mxPoint x="810" y="450" as="targetPoint" />
          </mxGeometry>
        </mxCell>
        <mxCell id="bs-LM55962rm8Q-rNUqh-80" value="1" style="text;html=1;align=center;verticalAlign=middle;resizable=0;points=[];autosize=1;strokeColor=none;fillColor=none;" vertex="1" parent="1">
          <mxGeometry x="545" y="505" width="30" height="30" as="geometry" />
        </mxCell>
        <mxCell id="bs-LM55962rm8Q-rNUqh-81" value="" style="endArrow=none;html=1;rounded=0;entryX=0;entryY=0.5;entryDx=0;entryDy=0;" edge="1" parent="1" target="bs-LM55962rm8Q-rNUqh-40">
          <mxGeometry width="50" height="50" relative="1" as="geometry">
            <mxPoint x="480" y="480" as="sourcePoint" />
            <mxPoint x="1040" y="730" as="targetPoint" />
          </mxGeometry>
        </mxCell>
        <mxCell id="bs-LM55962rm8Q-rNUqh-82" value="" style="shape=link;html=1;rounded=0;exitX=1;exitY=0.5;exitDx=0;exitDy=0;entryX=0;entryY=0.75;entryDx=0;entryDy=0;" edge="1" parent="1" source="bs-LM55962rm8Q-rNUqh-40" target="BxqiN3wB2n1SwKioA44z-173">
          <mxGeometry width="100" relative="1" as="geometry">
            <mxPoint x="990" y="670" as="sourcePoint" />
            <mxPoint x="1090" y="670" as="targetPoint" />
          </mxGeometry>
        </mxCell>
        <mxCell id="bs-LM55962rm8Q-rNUqh-83" value="" style="shape=link;html=1;rounded=0;exitX=1;exitY=0;exitDx=0;exitDy=0;entryX=0;entryY=0.5;entryDx=0;entryDy=0;" edge="1" parent="1" source="BxqiN3wB2n1SwKioA44z-173" target="bs-LM55962rm8Q-rNUqh-48">
          <mxGeometry width="100" relative="1" as="geometry">
            <mxPoint x="1530" y="670" as="sourcePoint" />
            <mxPoint x="1720" y="630" as="targetPoint" />
          </mxGeometry>
        </mxCell>
        <mxCell id="bs-LM55962rm8Q-rNUqh-84" value="1" style="text;html=1;align=center;verticalAlign=middle;resizable=0;points=[];autosize=1;strokeColor=none;fillColor=none;" vertex="1" parent="1">
          <mxGeometry x="1560" y="740" width="30" height="30" as="geometry" />
        </mxCell>
        <mxCell id="bs-LM55962rm8Q-rNUqh-85" value="M" style="text;html=1;align=center;verticalAlign=middle;resizable=0;points=[];autosize=1;strokeColor=none;fillColor=none;" vertex="1" parent="1">
          <mxGeometry x="990" y="1040" width="30" height="30" as="geometry" />
        </mxCell>
        <mxCell id="bs-LM55962rm8Q-rNUqh-86" value="1" style="text;html=1;align=center;verticalAlign=middle;resizable=0;points=[];autosize=1;strokeColor=none;fillColor=none;" vertex="1" parent="1">
          <mxGeometry x="965" y="1930" width="30" height="30" as="geometry" />
        </mxCell>
        <mxCell id="bs-LM55962rm8Q-rNUqh-87" value="1" style="text;html=1;align=center;verticalAlign=middle;resizable=0;points=[];autosize=1;strokeColor=none;fillColor=none;" vertex="1" parent="1">
          <mxGeometry x="1230" y="1900" width="30" height="30" as="geometry" />
        </mxCell>
      </root>
    </mxGraphModel>
  </diagram>
</mxfile>
